<svg width="1200" height="514" viewBox="0 0 1200 514" fill="none" xmlns="http://www.w3.org/2000/svg">
<path style="mix-blend-mode:multiply" opacity="0.5" d="M149.204 278.484C231.608 278.484 298.409 256.129 298.409 228.552C298.409 200.976 231.608 178.621 149.204 178.621C66.8011 178.621 0 200.976 0 228.552C0 256.129 66.8011 278.484 149.204 278.484Z" fill="url(#paint0_radial_544_2188)"/>
<path d="M149.203 273.561C68.6235 273.561 5.50391 253.792 5.50391 228.552C5.50391 203.312 68.6235 183.543 149.203 183.543C229.783 183.543 292.903 203.312 292.903 228.552C292.903 253.792 229.783 273.561 149.203 273.561ZM149.203 188.875C66.4294 188.875 10.8305 209.392 10.8305 228.552C10.8305 247.712 66.4294 268.228 149.203 268.228C231.977 268.228 287.576 247.712 287.576 228.552C287.576 209.392 231.977 188.875 149.203 188.875Z" fill="#002E57"/>
<path d="M166.438 165.777C178.75 159.611 187.13 146.928 187.13 132.307C187.13 111.592 170.304 94.7539 149.619 94.7539C128.934 94.7539 112.174 111.598 112.174 132.307C112.174 146.928 120.547 159.611 132.793 165.777C104.799 173.161 84.1797 198.745 84.1797 229.132C84.1797 249.629 215.118 249.629 215.118 229.132C215.118 198.745 194.426 173.161 166.438 165.777Z" fill="#002E57"/>
<path style="mix-blend-mode:multiply" opacity="0.5" d="M1019.31 322.328C1119.1 322.328 1200 295.254 1200 261.857C1200 228.46 1119.1 201.387 1019.31 201.387C919.522 201.387 838.625 228.46 838.625 261.857C838.625 295.254 919.522 322.328 1019.31 322.328Z" fill="url(#paint1_radial_544_2188)"/>
<path d="M1019.31 315.795C922.043 315.795 845.852 292.103 845.852 261.855C845.852 231.606 922.043 207.914 1019.31 207.914C1116.58 207.914 1192.77 231.606 1192.77 261.855C1192.77 292.103 1116.57 315.795 1019.31 315.795ZM1019.31 213.24C928.169 213.24 851.178 235.503 851.178 261.855C851.178 288.206 928.176 310.469 1019.31 310.469C1110.44 310.469 1187.45 288.206 1187.45 261.855C1187.45 235.503 1110.45 213.24 1019.31 213.24Z" fill="#002E57"/>
<path d="M1040.19 185.833C1055.11 178.37 1065.24 163.007 1065.24 145.303C1065.24 120.221 1044.87 99.8242 1019.82 99.8242C994.762 99.8242 974.473 120.221 974.473 145.303C974.473 163.007 984.617 178.37 999.44 185.833C965.545 194.771 940.57 225.761 940.57 262.559C940.57 287.382 1099.14 287.382 1099.14 262.559C1099.14 225.761 1074.09 194.771 1040.18 185.833H1040.19Z" fill="#002E57"/>
<path style="mix-blend-mode:multiply" opacity="0.5" d="M458.953 124.838C514.938 124.838 560.323 109.649 560.323 90.9114C560.323 72.174 514.938 56.9844 458.953 56.9844C402.967 56.9844 357.582 72.174 357.582 90.9114C357.582 109.649 402.967 124.838 458.953 124.838Z" fill="url(#paint2_radial_544_2188)"/>
<path d="M458.955 122.338C411.208 122.338 360.473 111.323 360.473 90.9055C360.473 70.4884 411.214 59.4727 458.955 59.4727C506.697 59.4727 557.438 70.4884 557.438 90.9055C557.438 111.323 506.697 122.338 458.955 122.338ZM458.955 64.8052C404.05 64.8052 365.793 78.5599 365.793 90.9055C365.793 103.251 404.05 117.006 458.955 117.006C513.86 117.006 552.111 103.251 552.111 90.9055C552.111 78.5599 513.854 64.8052 458.955 64.8052Z" fill="#002E57"/>
<path d="M470.664 48.2574C479.031 44.0694 484.721 35.4487 484.721 25.5181C484.721 11.4457 473.288 0 459.231 0C445.175 0 433.794 11.4457 433.794 25.5181C433.794 35.4487 439.485 44.0694 447.805 48.2574C428.785 53.2723 414.781 70.6593 414.781 91.3013C414.781 105.228 503.741 105.228 503.741 91.3013C503.741 70.6526 489.684 53.2723 470.664 48.2574Z" fill="#002E57"/>
<path d="M907.487 299.359L814.234 350.195L816.782 354.879L910.034 304.043L907.487 299.359Z" fill="#002E57"/>
<path d="M198.086 265.493L196.109 270.445L434.861 365.948L436.837 360.997L198.086 265.493Z" fill="#002E57"/>
<path d="M413.842 113.964L218.27 189.238L220.179 194.209L415.751 118.935L413.842 113.964Z" fill="#002E57"/>
<path style="mix-blend-mode:multiply" opacity="0.5" d="M646.442 514C806.351 514 935.982 470.617 935.982 417.102C935.982 363.586 806.351 320.203 646.442 320.203C486.534 320.203 356.902 363.586 356.902 417.102C356.902 470.617 486.534 514 646.442 514Z" fill="url(#paint3_radial_544_2188)"/>
<path d="M646.441 501.939C491.481 501.939 370.086 464.678 370.086 417.108C370.086 369.539 491.474 332.277 646.441 332.277C801.409 332.277 922.797 369.539 922.797 417.108C922.797 464.678 801.409 501.939 646.441 501.939ZM646.441 337.597C499.53 337.597 375.413 374.005 375.413 417.102C375.413 460.198 499.524 496.606 646.441 496.606C793.359 496.606 917.47 460.198 917.47 417.102C917.47 374.005 793.353 337.597 646.441 337.597Z" fill="#002E57"/>
<path d="M679.888 295.285C703.785 283.323 720.042 258.705 720.042 230.335C720.042 190.143 687.395 157.453 647.248 157.453C607.1 157.453 574.585 190.136 574.585 230.335C574.585 258.705 590.843 283.323 614.594 295.285C560.277 309.609 520.262 359.262 520.262 418.238C520.262 458.013 774.359 458.013 774.359 418.238C774.359 359.269 734.211 309.615 679.888 295.285Z" fill="#002E57"/>
<defs>
<radialGradient id="paint0_radial_544_2188" cx="0" cy="0" r="1" gradientUnits="userSpaceOnUse" gradientTransform="translate(147.915 205.954) scale(148.96 49.0546)">
<stop offset="0.22" stop-color="#002E57"/>
<stop offset="0.23" stop-color="#023058"/>
<stop offset="0.29" stop-color="#375B7B"/>
<stop offset="0.35" stop-color="#66819A"/>
<stop offset="0.42" stop-color="#8FA3B5"/>
<stop offset="0.5" stop-color="#B1BFCC"/>
<stop offset="0.57" stop-color="#CDD6DE"/>
<stop offset="0.66" stop-color="#E3E8ED"/>
<stop offset="0.75" stop-color="#F3F5F7"/>
<stop offset="0.85" stop-color="#FCFCFD"/>
<stop offset="1" stop-color="white"/>
</radialGradient>
<radialGradient id="paint1_radial_544_2188" cx="0" cy="0" r="1" gradientUnits="userSpaceOnUse" gradientTransform="translate(1016.65 238.665) scale(180.392 59.4054)">
<stop offset="0.22" stop-color="#002E57"/>
<stop offset="0.23" stop-color="#023058"/>
<stop offset="0.29" stop-color="#375B7B"/>
<stop offset="0.35" stop-color="#66819A"/>
<stop offset="0.42" stop-color="#8FA3B5"/>
<stop offset="0.5" stop-color="#B1BFCC"/>
<stop offset="0.57" stop-color="#CDD6DE"/>
<stop offset="0.66" stop-color="#E3E8ED"/>
<stop offset="0.75" stop-color="#F3F5F7"/>
<stop offset="0.85" stop-color="#FCFCFD"/>
<stop offset="1" stop-color="white"/>
</radialGradient>
<radialGradient id="paint2_radial_544_2188" cx="0" cy="0" r="1" gradientUnits="userSpaceOnUse" gradientTransform="translate(457.171 70.7424) scale(101.205 33.3283)">
<stop offset="0.22" stop-color="#002E57"/>
<stop offset="0.23" stop-color="#023058"/>
<stop offset="0.29" stop-color="#375B7B"/>
<stop offset="0.35" stop-color="#66819A"/>
<stop offset="0.42" stop-color="#8FA3B5"/>
<stop offset="0.5" stop-color="#B1BFCC"/>
<stop offset="0.57" stop-color="#CDD6DE"/>
<stop offset="0.66" stop-color="#E3E8ED"/>
<stop offset="0.75" stop-color="#F3F5F7"/>
<stop offset="0.85" stop-color="#FCFCFD"/>
<stop offset="1" stop-color="white"/>
</radialGradient>
<radialGradient id="paint3_radial_544_2188" cx="0" cy="0" r="1" gradientUnits="userSpaceOnUse" gradientTransform="translate(644.365 391.168) scale(289.066 95.1932)">
<stop offset="0.22" stop-color="#002E57"/>
<stop offset="0.23" stop-color="#023058"/>
<stop offset="0.29" stop-color="#375B7B"/>
<stop offset="0.35" stop-color="#66819A"/>
<stop offset="0.42" stop-color="#8FA3B5"/>
<stop offset="0.5" stop-color="#B1BFCC"/>
<stop offset="0.57" stop-color="#CDD6DE"/>
<stop offset="0.66" stop-color="#E3E8ED"/>
<stop offset="0.75" stop-color="#F3F5F7"/>
<stop offset="0.85" stop-color="#FCFCFD"/>
<stop offset="1" stop-color="white"/>
</radialGradient>
</defs>
</svg>
