<svg width="551" height="316" viewBox="0 0 551 316" fill="none" xmlns="http://www.w3.org/2000/svg">
<path d="M367.402 263.99C364.315 264.188 362.258 263.436 360.893 260.014C358.439 253.86 353.592 246.678 347.854 243.691C339.821 239.516 331.096 237.419 322.212 237.201C305.415 236.825 288.617 237.063 271.839 237.221C256.921 237.359 242.022 237.874 227.124 237.973C211.988 238.072 196.813 237.003 181.756 238.072C167.273 239.081 153.938 246.856 148.596 262.447C145.945 263.931 141.592 261.537 141.078 264.901C140.345 269.728 144.995 268.185 146.776 268.838C148.814 277.326 149.783 286.387 152.553 293.827C157.915 308.329 169.034 315.591 184.19 315.393C203.52 315.116 218.676 306.291 230.468 291.096C237.986 281.421 242.893 270.401 246.375 258.114C251.104 258.114 255.595 257.976 260.086 258.233C261.036 258.292 262.54 259.618 262.718 260.587C264.855 271.726 269.999 281.401 276.528 290.384C287.904 305.995 302.941 314.819 322.252 315.689C341.76 316.56 355.828 306.964 360.536 288.841C362.119 282.747 362.317 276.297 363.207 269.59C364.869 269.491 366.868 269.352 369.005 269.234C370.409 269.154 371.498 267.987 371.498 266.602C371.498 265.158 370.33 263.951 368.866 263.951C368.371 263.951 367.897 263.951 367.441 263.99H367.402ZM262.223 252.277H246.355C245.861 247.41 242.141 243.097 239.173 241.89H269.999C265.686 242.978 262.797 248.024 262.203 252.277H262.223Z" fill="#3B7073"/>
<path d="M268.551 256.294C268.551 256.294 265.782 246.837 280.284 243.75C296.152 240.386 359.188 233.501 358.416 270.876C357.665 307.835 335.742 312.979 320.369 310.961C304.976 308.943 275.021 298.001 268.551 256.314V256.294Z" fill="#86B3B0"/>
<path d="M240.16 256.789C240.16 256.789 242.87 247.569 228.704 244.561C213.232 241.277 151.778 234.57 152.53 271.014C153.262 307.043 174.63 312.069 189.628 310.09C204.625 308.112 233.828 297.467 240.16 256.808V256.789Z" fill="#86B3B0"/>
<g style="mix-blend-mode:multiply" opacity="0.18">
<path d="M325.852 242.07C330.976 245.928 334.973 251.409 336.991 257.622C341.937 272.876 331.194 288.645 316.79 293.215C304.761 297.014 293.839 294.996 283.254 290.782C295.026 304.79 310.637 309.677 320.391 310.963C335.784 312.981 357.686 307.857 358.438 270.878C358.814 252.28 343.401 244.642 325.852 242.07Z" fill="#86B3B0"/>
</g>
<g style="mix-blend-mode:multiply" opacity="0.18">
<path d="M211.213 297.013C206.801 297.389 202.092 296.776 197.819 295.826C191.329 294.382 186.68 290.88 181.615 286.883C175.738 282.253 173.463 273.567 173.146 266.425C172.81 258.728 176.549 251.487 181.615 245.967C182.703 244.78 183.989 243.731 185.374 242.762C167.824 245.116 152.154 252.476 152.53 270.995C153.262 307.024 174.63 312.05 189.628 310.071C197.74 309.003 210.026 305.382 220.572 295.846C217.466 296.459 214.26 296.736 211.194 296.993L211.213 297.013Z" fill="#86B3B0"/>
</g>
<path fill-rule="evenodd" clip-rule="evenodd" d="M24.4825 97.6958L31.1658 95.5041C33.3991 94.7718 35.5772 95.2578 36.0133 96.5879L39.7559 108C40.192 109.331 38.7247 111.012 36.4915 111.744L29.8082 113.936C27.575 114.668 25.3804 114.188 24.9442 112.858L21.2017 101.445C20.7656 100.115 22.2493 98.4281 24.4825 97.6958Z" fill="#3B7073"/>
<path d="M40.1628 216.771C42.3491 223.438 49.5886 227.102 56.2555 224.916L234.832 166.355C241.499 164.169 245.163 156.929 242.977 150.262L212.994 58.8309L10.1797 125.34L40.1628 216.771Z" fill="#60CED2"/>
<path d="M51.7847 150.944C58.3327 170.912 76.9842 200.114 94.4353 208.741L194.504 175.925C203.458 158.64 201.194 124.063 194.646 104.095C190.414 91.1886 183.018 80.2283 173.616 71.7447L49.5732 112.422C47.0208 124.826 47.5575 138.054 51.7847 150.944Z" fill="#60CED2"/>
<path opacity="0.36" d="M218.857 76.7138L16.043 143.223L38.3795 211.336L241.194 144.827L218.857 76.7138Z" fill="#3B7073"/>
<g style="mix-blend-mode:multiply" opacity="0.36">
<path d="M238.759 137.405L35.9453 203.914L38.3793 211.336L241.193 144.827L238.759 137.405Z" fill="#3B7073"/>
</g>
<g style="mix-blend-mode:multiply" opacity="0.36">
<path d="M218.814 76.8544L16 143.363L18.434 150.786L221.248 84.2766L218.814 76.8544Z" fill="#3B7073"/>
</g>
<path d="M203.009 28.0032L146.39 46.5704C143.714 47.4481 140.489 65.4556 140.489 65.4556L12.2406 107.84C7.36365 109.439 7.24289 116.28 8.55681 120.287L9.41839 122.914L212.282 56.3892L203.009 28.0032Z" fill="#60CED2"/>
<path fill-rule="evenodd" clip-rule="evenodd" d="M142.939 193.762C169.837 184.942 184.581 155.809 175.76 128.912C166.94 102.014 137.807 87.2703 110.91 96.0908C84.0125 104.911 69.2684 134.044 78.0889 160.941C86.9094 187.838 116.042 202.582 142.939 193.762Z" fill="#FEFEFE"/>
<g style="mix-blend-mode:multiply">
<path fill-rule="evenodd" clip-rule="evenodd" d="M143.748 196.224C171.992 186.962 187.476 156.369 178.214 128.125C168.952 99.8809 138.358 84.3975 110.114 93.6595C81.8705 102.922 66.387 133.515 75.6491 161.759C84.9111 190.003 115.505 205.486 143.748 196.224Z" fill="#4D4D4D"/>
</g>
<path fill-rule="evenodd" clip-rule="evenodd" d="M142.26 191.691C168.008 183.248 182.123 155.358 173.68 129.611C165.236 103.863 137.347 89.7476 111.599 98.1911C85.8507 106.635 71.7193 134.53 80.1628 160.278C88.6064 186.025 116.496 200.14 142.26 191.691Z" fill="#B0DAD0"/>
<path fill-rule="evenodd" clip-rule="evenodd" d="M140.375 185.946C162.97 178.537 175.353 154.071 167.943 131.476C160.534 108.881 136.068 96.4983 113.472 103.908C90.8773 111.318 78.495 135.784 85.9046 158.379C93.3142 180.974 117.78 193.356 140.375 185.946Z" fill="#F5F6D9"/>
<path d="M140.375 185.946C162.97 178.537 175.353 154.071 167.943 131.476C160.534 108.881 136.068 96.4983 113.472 103.908C90.8773 111.318 78.495 135.784 85.9046 158.379C93.3142 180.974 117.78 193.356 140.375 185.946Z" stroke="#F4D497" stroke-miterlimit="10"/>
<path fill-rule="evenodd" clip-rule="evenodd" d="M138.947 181.592C159.145 174.969 170.214 153.098 163.59 132.9C156.967 112.702 135.096 101.633 114.898 108.257C94.7006 114.88 83.6315 136.751 90.255 156.949C96.8784 177.147 118.75 188.216 138.947 181.592Z" fill="#393132"/>
<path fill-rule="evenodd" clip-rule="evenodd" d="M136.74 174.862C153.227 169.456 162.265 151.597 156.859 135.11C151.453 118.624 133.594 109.585 117.107 114.992C100.621 120.398 91.5821 138.257 96.9885 154.744C102.395 171.23 120.254 180.269 136.74 174.862Z" fill="#211C1D"/>
<path d="M136.741 174.862C136.741 174.862 137.469 174.587 138.805 174.058C139.494 173.832 140.289 173.426 141.22 172.939C141.686 172.695 142.19 172.457 142.711 172.159C143.22 171.828 143.747 171.492 144.317 171.123C146.527 169.598 149.138 167.523 151.431 164.534C153.736 161.578 155.869 157.823 157.06 153.359C158.235 148.9 158.473 143.802 157.388 138.665C157.083 137.401 156.723 136.083 156.287 134.862C155.768 133.613 155.31 132.272 154.638 131.11C153.453 128.662 151.743 126.386 149.851 124.278C147.943 122.175 145.635 120.405 143.178 118.846C140.682 117.336 137.939 116.181 135.085 115.353C132.214 114.585 129.216 114.259 126.226 114.293C123.236 114.382 120.211 114.974 117.42 115.835C114.453 116.881 111.824 118.125 109.329 119.834C106.905 121.593 104.676 123.615 102.823 125.951C101.014 128.308 99.5041 130.858 98.3871 133.552C97.3301 136.263 96.5186 139.057 96.2262 141.881C95.5866 147.529 96.5539 153.141 98.6781 157.954C100.819 162.708 104.057 166.703 107.639 169.584C111.242 172.476 115.185 174.238 118.792 175.256C122.41 176.306 125.727 176.437 128.427 176.352C129.105 176.312 129.744 176.266 130.335 176.236C130.936 176.184 131.478 176.061 131.997 175.981C133.036 175.823 133.917 175.679 134.606 175.453C136.013 175.083 136.746 174.879 136.746 174.879L136.741 174.862ZM136.741 174.862C136.741 174.862 135.991 175.072 134.606 175.453C133.917 175.679 133.042 175.839 132.003 175.998C131.483 176.077 130.925 176.206 130.324 176.257C129.717 176.293 129.077 176.339 128.405 176.396C125.715 176.514 122.371 176.41 118.726 175.387C115.08 174.418 111.116 172.645 107.391 169.828C103.695 166.985 100.32 163.072 97.9556 158.191C95.6674 153.377 94.477 147.584 95.0193 141.695C95.2523 138.745 96.0207 135.82 97.0457 132.956C98.1689 130.114 99.7449 127.433 101.604 124.95C103.529 122.5 105.835 120.325 108.385 118.452C110.94 116.651 113.937 115.195 116.789 114.187C119.919 113.251 122.993 112.698 126.169 112.621C129.333 112.62 132.473 112.99 135.475 113.824C138.46 114.719 141.317 115.946 143.889 117.576C146.427 119.272 148.762 121.179 150.713 123.413C152.632 125.658 154.32 128.032 155.498 130.628C156.186 131.894 156.579 133.202 157.07 134.478C157.511 135.824 157.828 137.121 158.116 138.445C159.107 143.74 158.716 148.924 157.415 153.388C156.082 157.862 153.937 161.639 151.573 164.579C149.242 167.562 146.603 169.609 144.371 171.123C143.801 171.492 143.259 171.834 142.743 172.148C142.223 172.446 141.702 172.69 141.237 172.933C140.305 173.421 139.506 173.81 138.816 174.036C137.458 174.554 136.746 174.824 136.746 174.824L136.741 174.862Z" fill="#BFBDBD"/>
<path fill-rule="evenodd" clip-rule="evenodd" d="M130.424 155.601C136.303 153.673 139.525 147.306 137.597 141.427C135.67 135.548 129.302 132.326 123.424 134.254C117.545 136.182 114.322 142.549 116.25 148.427C118.178 154.306 124.545 157.529 130.424 155.601Z" fill="#A4A2A2"/>
<path d="M131.134 157.767C131.134 157.767 131.44 157.648 132.021 157.422C132.601 157.195 133.417 156.8 134.388 156.154C135.336 155.498 136.445 154.607 137.424 153.322C138.386 152.042 139.296 150.435 139.759 148.519C140.227 146.619 140.298 144.45 139.789 142.289C139.655 141.769 139.488 141.205 139.305 140.702C139.078 140.176 138.868 139.59 138.569 139.124C138.06 138.127 137.327 137.167 136.517 136.305C134.864 134.592 132.701 133.319 130.31 132.685C129.121 132.384 127.881 132.263 126.645 132.268C125.421 132.306 124.141 132.562 123.036 132.906C121.733 133.37 120.725 133.846 119.667 134.557C118.668 135.284 117.741 136.116 116.96 137.063C115.426 138.984 114.42 141.297 114.097 143.639C113.78 145.999 114.151 148.35 115.01 150.415C115.869 152.425 117.216 154.147 118.718 155.4C120.226 156.67 121.894 157.432 123.444 157.888C124.983 158.366 126.42 158.422 127.568 158.373C128.721 158.34 129.623 158.153 130.225 157.992C130.827 157.831 131.145 157.745 131.145 157.745L131.134 157.767ZM131.134 157.767C131.134 157.767 130.822 157.869 130.22 158.03C129.618 158.191 128.721 158.395 127.573 158.444C126.425 158.493 124.993 158.453 123.421 158.041C121.855 157.645 120.137 156.899 118.514 155.722C116.903 154.523 115.408 152.849 114.331 150.728C113.308 148.663 112.746 146.119 112.939 143.546C113.022 142.246 113.345 140.958 113.783 139.687C114.259 138.421 114.943 137.233 115.763 136.128C116.604 135.033 117.614 134.066 118.744 133.241C119.863 132.437 121.265 131.777 122.453 131.351C125.222 130.48 128.097 130.428 130.76 131.228C132.075 131.633 133.335 132.202 134.463 132.924C135.568 133.689 136.591 134.535 137.428 135.534C138.248 136.538 138.97 137.574 139.478 138.735C139.776 139.311 139.937 139.858 140.137 140.411C140.336 141.018 140.448 141.582 140.566 142.162C140.959 144.47 140.751 146.72 140.162 148.641C139.557 150.567 138.61 152.169 137.582 153.416C136.559 154.679 135.429 155.558 134.475 156.199C133.504 156.844 132.661 157.212 132.097 157.433C131.517 157.66 131.205 157.762 131.205 157.762L131.134 157.767Z" fill="#666263"/>
<path d="M110.893 150.33C110.893 150.33 111.055 150.714 111.33 151.442C111.454 151.82 111.681 152.236 111.936 152.735C112.174 153.238 112.521 153.798 112.933 154.39C113.758 155.574 114.888 156.968 116.5 158.167C118.095 159.372 120.134 160.485 122.53 161.082C124.921 161.662 127.642 161.752 130.361 161.114C131.029 160.932 131.729 160.739 132.359 160.496C133.027 160.204 133.744 159.951 134.347 159.571C135.623 158.916 136.814 157.998 137.901 156.987C140.07 154.894 141.662 152.152 142.453 149.129C142.827 147.606 142.971 146.049 142.946 144.475C142.893 142.928 142.562 141.309 142.115 139.892C141.533 138.282 140.884 136.967 139.977 135.646C139.055 134.384 137.984 133.226 136.77 132.242C134.32 130.317 131.375 129.101 128.398 128.731C125.411 128.383 122.463 128.877 119.867 130.001C117.342 131.12 115.213 132.836 113.658 134.747C112.102 136.658 111.157 138.768 110.612 140.711C110.045 142.643 109.982 144.446 110.051 145.878C110.086 146.594 110.137 147.25 110.26 147.792C110.351 148.344 110.436 148.825 110.554 149.187C110.764 149.936 110.876 150.336 110.876 150.336L110.893 150.33ZM110.893 150.33C110.893 150.33 110.764 149.936 110.571 149.181C110.447 148.803 110.367 148.339 110.26 147.792C110.132 147.234 110.069 146.599 110.029 145.867C109.954 144.418 110.007 142.637 110.503 140.656C110.988 138.696 111.916 136.537 113.396 134.505C114.898 132.485 116.978 130.621 119.614 129.284C122.194 128.001 125.329 127.301 128.552 127.535C130.169 127.641 131.768 128.026 133.345 128.564C134.899 129.145 136.393 129.983 137.776 130.984C139.148 132.008 140.344 133.27 141.381 134.658C142.38 136.04 143.208 137.733 143.758 139.244C144.296 140.995 144.605 142.658 144.667 144.402C144.692 146.139 144.476 147.865 144.014 149.508C143.514 151.145 142.845 152.71 141.959 154.11C141.028 155.488 139.978 156.778 138.755 157.816C137.531 158.854 136.248 159.766 134.807 160.42C134.111 160.794 133.416 161.004 132.721 161.268C131.982 161.51 131.271 161.671 130.56 161.831C127.693 162.353 124.891 162.126 122.479 161.426C120.073 160.687 118.04 159.535 116.461 158.271C114.866 157.011 113.753 155.612 112.939 154.406C112.537 153.792 112.196 153.25 111.952 152.729C111.698 152.231 111.481 151.792 111.347 151.436C111.071 150.708 110.909 150.325 110.909 150.325L110.893 150.33Z" fill="#BFBDBD"/>
<path d="M167.047 53.4214C167.925 56.098 166.392 59.0197 163.6 59.9352C160.809 60.8506 157.843 59.4044 156.965 56.7278C156.087 54.0512 157.621 51.1295 160.412 50.214C163.204 49.2986 166.164 50.7284 167.047 53.4214Z" fill="#F5F6D9"/>
<path d="M167.047 53.4214C167.925 56.098 166.392 59.0197 163.6 59.9352C160.809 60.8506 157.843 59.4044 156.965 56.7278C156.087 54.0512 157.621 51.1295 160.412 50.214C163.204 49.2986 166.164 50.7284 167.047 53.4214Z" stroke="#F4D497" stroke-miterlimit="10"/>
<path d="M198.075 36.6956L176.301 43.8359L180.539 56.7591L202.313 49.6188L198.075 36.6956Z" fill="#494141"/>
<path d="M182.446 49.699C182.446 49.699 182.503 49.0981 182.758 48.3233C183.013 47.5486 183.477 46.5781 184.061 45.6956C184.644 44.8132 185.348 44.0187 185.968 43.4698C186.572 42.9262 187.098 42.6446 187.098 42.6446C187.098 42.6446 187.04 43.2455 186.785 44.0202C186.53 44.795 186.066 45.7655 185.483 46.648C184.899 47.5304 184.196 48.3249 183.575 48.8738C182.972 49.4174 182.446 49.699 182.446 49.699Z" fill="#72645B"/>
<path d="M185.824 52.6799C185.824 52.6799 186.129 51.7797 186.785 50.5642C187.42 49.3377 188.383 47.7849 189.467 46.3201C190.551 44.8553 191.754 43.4786 192.726 42.5051C193.698 41.5316 194.477 40.9671 194.477 40.9671C194.477 40.9671 194.172 41.8673 193.516 43.0828C192.882 44.3093 191.918 45.8621 190.834 47.3268C189.75 48.7916 188.547 50.1684 187.558 51.1472C186.586 52.1207 185.808 52.6853 185.808 52.6853L185.824 52.6799Z" fill="#72645B"/>
<path d="M193.124 50.0337C193.124 50.0337 193.127 49.5419 193.321 48.9144C193.499 48.2923 193.852 47.5398 194.325 46.8754C194.799 46.211 195.392 45.6346 195.924 45.2601C196.434 44.8746 196.91 44.7185 196.91 44.7185C196.91 44.7185 196.908 45.2103 196.713 45.8378C196.535 46.4599 196.182 47.2124 195.709 47.8768C195.235 48.5412 194.642 49.1176 194.111 49.4921C193.6 49.8776 193.124 50.0337 193.124 50.0337Z" fill="#72645B"/>
<g style="mix-blend-mode:multiply" opacity="0.11">
<path d="M36.0251 96.5684C35.5889 95.2383 33.4108 94.7523 31.1775 95.4846L24.4942 97.6763C22.261 98.4086 20.7773 100.095 21.2135 101.426L22.2312 104.529L37.032 99.6391L36.0251 96.5684Z" fill="#3B7073"/>
<path d="M202.686 157.454C203.326 164.01 203.327 170.557 202.591 176.909L234.825 166.338C241.492 164.152 245.156 156.912 242.97 150.245L241.193 144.826L202.669 157.459L202.686 157.454Z" fill="#60CED2"/>
<path d="M62.7967 203.329L38.3789 211.336L40.1559 216.755C42.3422 223.422 49.5817 227.086 56.2486 224.899L81.6681 216.564C74.7826 213.147 68.4435 208.624 62.7967 203.329Z" fill="#60CED2"/>
<path d="M152.367 78.7109C159.368 82.0895 165.821 86.6841 171.614 92.2046L218.857 76.7122L212.993 58.8299L152.367 78.7109Z" fill="#60CED2"/>
<path d="M43.0542 114.559L10.1797 125.34L16.0438 143.222L36.7177 136.443C37.6509 128.862 39.7909 121.467 43.0378 114.565L43.0542 114.559Z" fill="#60CED2"/>
<path d="M36.7168 136.443L16.043 143.223L16.0807 143.338L36.7053 136.574C36.7053 136.574 36.7166 136.498 36.7168 136.443Z" fill="#60CED2"/>
<path opacity="0.36" d="M36.7168 136.443L16.043 143.223L16.0807 143.338L36.7053 136.574C36.7053 136.574 36.7166 136.498 36.7168 136.443Z" fill="#3B7073"/>
<path d="M42.2192 174.141C38.0846 164.694 36.1383 154.766 36.1806 144.968L18.5117 150.762L35.9426 203.916L56.7643 197.088C50.7645 190.217 45.8186 182.4 42.2192 174.141Z" fill="#60CED2"/>
<path opacity="0.36" d="M42.2192 174.141C38.0846 164.694 36.1383 154.766 36.1806 144.968L18.5117 150.762L35.9426 203.916L56.7643 197.088C50.7645 190.217 45.8186 182.4 42.2192 174.141Z" fill="#3B7073"/>
<path d="M171.63 92.2016C171.63 92.2016 171.684 92.2566 171.717 92.3004L218.812 76.8565L221.246 84.2788L177.665 98.5703C189.81 112.647 198.257 130.919 201.582 149.598L238.759 137.406L218.856 76.7147L171.613 92.207L171.63 92.2016Z" fill="#60CED2"/>
<path opacity="0.36" d="M171.63 92.2016C171.63 92.2016 171.684 92.2566 171.717 92.3004L218.812 76.8565L221.246 84.2788L177.665 98.5703C189.81 112.647 198.257 130.919 201.582 149.598L238.759 137.406L218.856 76.7147L171.613 92.207L171.63 92.2016Z" fill="#3B7073"/>
<path d="M201.581 149.598C202.038 152.212 202.408 154.837 202.668 157.461L241.192 144.828L238.758 137.406L201.581 149.598Z" fill="#60CED2"/>
<path opacity="0.36" d="M201.581 149.598C202.038 152.212 202.408 154.837 202.668 157.461L241.192 144.828L238.758 137.406L201.581 149.598Z" fill="#3B7073"/>
<g style="mix-blend-mode:multiply" opacity="0.36">
<path d="M201.581 149.598C202.038 152.212 202.408 154.837 202.668 157.461L241.192 144.828L238.758 137.406L201.581 149.598Z" fill="#3B7073"/>
</g>
<path d="M56.7834 197.081L35.9453 203.914L38.3793 211.336L62.7971 203.329C60.6918 201.346 58.68 199.259 56.767 197.086L56.7834 197.081Z" fill="#60CED2"/>
<path opacity="0.36" d="M56.7834 197.081L35.9453 203.914L38.3793 211.336L62.7971 203.329C60.6918 201.346 58.68 199.259 56.767 197.086L56.7834 197.081Z" fill="#3B7073"/>
<g style="mix-blend-mode:multiply" opacity="0.36">
<path d="M56.7834 197.081L35.9453 203.914L38.3793 211.336L62.7971 203.329C60.6918 201.346 58.68 199.259 56.767 197.086L56.7834 197.081Z" fill="#3B7073"/>
</g>
<g style="mix-blend-mode:multiply" opacity="0.36">
<path d="M16.0821 143.336L16 143.363L18.434 150.786L18.5161 150.759L16.0821 143.336Z" fill="#3B7073"/>
</g>
<path d="M171.719 92.3008C173.786 94.2782 175.781 96.37 177.667 98.5706L221.248 84.2791L218.814 76.8569L171.719 92.3008Z" fill="#60CED2"/>
<path opacity="0.36" d="M171.719 92.3008C173.786 94.2782 175.781 96.37 177.667 98.5706L221.248 84.2791L218.814 76.8569L171.719 92.3008Z" fill="#3B7073"/>
<g style="mix-blend-mode:multiply" opacity="0.36">
<path d="M171.719 92.3008C173.786 94.2782 175.781 96.37 177.667 98.5706L221.248 84.2791L218.814 76.8569L171.719 92.3008Z" fill="#3B7073"/>
</g>
<path d="M36.7027 136.576L16.0781 143.34L18.5121 150.762L36.1645 144.973C36.1673 142.153 36.3559 139.345 36.7027 136.576Z" fill="#60CED2"/>
<path opacity="0.36" d="M36.7027 136.576L16.0781 143.34L18.5121 150.762L36.1645 144.973C36.1673 142.153 36.3559 139.345 36.7027 136.576Z" fill="#3B7073"/>
<g style="mix-blend-mode:multiply" opacity="0.36">
<path d="M36.7027 136.576L16.0781 143.34L18.5121 150.762L36.1645 144.973C36.1673 142.153 36.3559 139.345 36.7027 136.576Z" fill="#3B7073"/>
</g>
<path d="M59.7422 92.1371L37.0319 99.639L22.231 104.529L12.2471 107.803C7.37553 109.419 7.26016 116.277 8.56869 120.267L9.43027 122.894L44.6694 111.338C48.4804 104.214 53.5452 97.6975 59.7368 92.1207L59.7422 92.1371Z" fill="#60CED2"/>
<path d="M146.393 46.5713C143.716 47.449 140.492 65.4565 140.492 65.4565L118.34 72.7754C128.21 71.5392 138.281 72.8561 148.338 76.9054C148.545 76.9829 148.742 77.0822 148.949 77.1597L212.301 56.3848L203.028 27.9988L146.409 46.5659L146.393 46.5713ZM163.597 59.9347C160.822 60.8448 157.839 59.4039 156.961 56.7273C156.084 54.0507 157.617 51.129 160.409 50.2136C163.2 49.2982 166.161 50.728 167.044 53.421C167.927 56.114 166.388 59.0193 163.597 59.9347ZM202.333 49.6144L180.559 56.7548L176.321 43.8316L198.095 36.6912L202.333 49.6144Z" fill="#60CED2"/>
<path d="M160.412 50.2296C157.637 51.1397 156.082 54.0504 156.965 56.7434C157.848 59.4364 160.809 60.8662 163.6 59.9508C166.392 59.0354 167.925 56.1137 167.047 53.4371C166.17 50.7605 163.204 49.3142 160.412 50.2296Z" fill="#F5F6D9"/>
<path d="M180.539 56.7591L202.313 49.6188L198.075 36.6956L176.301 43.8359L180.539 56.7591ZM196.905 44.7178C196.905 44.7178 196.902 45.2096 196.708 45.8371C196.53 46.4592 196.176 47.2117 195.703 47.8761C195.23 48.5405 194.637 49.1169 194.105 49.4914C193.595 49.8769 193.119 50.033 193.119 50.033C193.119 50.033 193.121 49.5412 193.316 48.9137C193.493 48.2916 193.847 47.5391 194.32 46.8747C194.793 46.2103 195.386 45.6339 195.918 45.2594C196.428 44.8739 196.905 44.7178 196.905 44.7178ZM192.735 42.4842C193.707 41.5107 194.486 40.9461 194.486 40.9461C194.486 40.9461 194.181 41.8464 193.524 43.0618C192.89 44.2883 191.926 45.8411 190.842 47.3059C189.759 48.7707 188.555 50.1474 187.567 51.1263C186.595 52.0998 185.816 52.6643 185.816 52.6643C185.816 52.6643 186.121 51.7641 186.777 50.5486C187.411 49.3221 188.375 47.7693 189.459 46.3046C190.543 44.8398 191.746 43.463 192.718 42.4896L192.735 42.4842ZM182.755 48.3212C183.01 47.5465 183.474 46.576 184.057 45.6935C184.641 44.8111 185.344 44.0166 185.964 43.4677C186.568 42.9241 187.094 42.6425 187.094 42.6425C187.094 42.6425 187.037 43.2434 186.782 44.0181C186.526 44.7929 186.063 45.7634 185.479 46.6459C184.895 47.5283 184.192 48.3228 183.572 48.8717C182.968 49.4153 182.442 49.6969 182.442 49.6969C182.442 49.6969 182.5 49.096 182.755 48.3212Z" fill="#494141"/>
<path d="M185.483 46.648C186.066 45.7655 186.53 44.795 186.785 44.0202C187.057 43.2401 187.098 42.6446 187.098 42.6446C187.098 42.6446 186.572 42.9262 185.968 43.4698C185.348 44.0187 184.644 44.8132 184.061 45.6956C183.477 46.5781 183.03 47.5432 182.758 48.3233C182.487 49.1035 182.446 49.699 182.446 49.699C182.446 49.699 182.972 49.4174 183.575 48.8738C184.196 48.3249 184.899 47.5304 185.483 46.648Z" fill="#72645B"/>
<path d="M185.823 52.6813C185.823 52.6813 186.602 52.1168 187.574 51.1433C188.562 50.1645 189.749 48.7931 190.85 47.3229C191.933 45.8582 192.897 44.3054 193.532 43.0789C194.188 41.8634 194.493 40.9632 194.493 40.9632C194.493 40.9632 193.714 41.5277 192.742 42.5012C191.754 43.4801 190.567 44.8514 189.483 46.3162C188.399 47.781 187.435 49.3338 186.801 50.5603C186.145 51.7757 185.84 52.676 185.84 52.676L185.823 52.6813Z" fill="#72645B"/>
<path d="M193.321 48.9339C193.121 49.545 193.124 50.0533 193.124 50.0533C193.124 50.0533 193.6 49.8971 194.111 49.5116C194.642 49.1371 195.235 48.5607 195.709 47.8963C196.182 47.2319 196.535 46.4795 196.713 45.8573C196.913 45.2462 196.91 44.738 196.91 44.738C196.91 44.738 196.434 44.8941 195.924 45.2797C195.392 45.6542 194.804 46.247 194.325 46.895C193.852 47.5594 193.499 48.3118 193.321 48.9339Z" fill="#72645B"/>
</g>
<path fill-rule="evenodd" clip-rule="evenodd" d="M344.58 0.436921L404.152 41.8312L479.667 45.7568L537.506 92.9101L490.815 262.016L429.006 224.64L351.953 217.13L291.761 170.839L344.58 0.436921Z" fill="#DCD9D3"/>
<path fill-rule="evenodd" clip-rule="evenodd" d="M347.261 5.26965L404.623 45.1329L477.361 48.9275L533.06 94.3182L488.082 257.189L428.566 221.19L354.358 213.94L296.388 169.382L347.261 5.26965Z" fill="white"/>
<mask id="mask0_661_236" style="mask-type:luminance" maskUnits="userSpaceOnUse" x="290" y="4" width="247" height="261">
<path d="M343.459 4.08926L403.031 45.4835L478.562 49.4141L536.385 96.5625L485.866 264.535L427.88 228.309L346.033 219.339L290.635 174.508L343.459 4.08926Z" fill="white"/>
</mask>
<g mask="url(#mask0_661_236)">
<path fill-rule="evenodd" clip-rule="evenodd" d="M506.978 137.651L507.809 134.887C507.888 134.983 507.973 135.063 508.031 135.17C508.71 136.151 509.484 137.177 510.825 137.581C512.165 137.984 510.178 139.732 509.204 139.728C508.231 139.724 508.5 138.83 507.823 138.14C507.575 137.885 507.264 137.719 506.978 137.651ZM508.297 133.265L508.556 132.405L508.572 132.41C509.078 132.526 509.483 133.64 508.474 133.337C508.408 133.317 508.341 133.297 508.292 133.282L508.297 133.265ZM508.297 133.265L508.556 132.405C507.528 132.041 507.483 132.912 508.297 133.265ZM507.809 134.887L506.978 137.651C506.499 137.561 506.1 137.748 506.112 138.311C506.123 138.693 505.966 138.736 505.721 138.59L507.025 134.254C507.309 134.448 507.572 134.653 507.792 134.882L507.809 134.887ZM491.139 187.133L491.363 186.388C491.615 186.392 491.74 186.574 491.616 186.807C491.518 187.013 491.3 187.2 491.134 187.15L491.139 187.133ZM505.274 140.134L505.513 139.34C505.917 139.858 505.844 140.161 505.274 140.134ZM507.041 134.259L505.737 138.595C505.459 138.439 505.076 138.035 504.715 137.674L505.944 133.586C506.307 133.822 506.696 134.029 507.041 134.259ZM505.513 139.34L505.274 140.134C505.077 140.129 504.841 140.076 504.543 139.986C504.361 139.931 504.212 139.887 504.053 139.875L504.536 138.27C504.678 138.457 504.848 138.671 505.073 138.883C505.259 139.047 505.406 139.217 505.508 139.356L505.513 139.34ZM491.363 186.388L491.139 187.133C491.139 187.133 491.017 187.06 490.975 186.958C490.817 186.585 490.893 186.391 491.254 186.392C491.292 186.385 491.33 186.379 491.368 186.372L491.363 186.388ZM486.006 199.882L486.329 198.806C486.367 199.16 486.226 199.569 486.006 199.882ZM489.823 187.189L490.047 186.444C490.304 186.431 490.424 186.629 490.3 186.863C490.202 187.068 489.984 187.255 489.818 187.205L489.823 187.189ZM505.944 133.586L504.715 137.674L504.591 137.546C504.05 137.005 504.005 137.515 504.541 138.253L504.058 139.858C503.466 139.789 503.005 139.939 502.608 140.18L504.853 132.717C504.853 132.717 504.982 132.828 505.038 132.881C505.302 133.141 505.632 133.366 505.971 133.558L505.944 133.586ZM490.047 186.444L489.823 187.189C489.823 187.189 489.701 187.116 489.659 187.013C489.501 186.64 489.577 186.447 489.938 186.447C489.976 186.44 490.014 186.434 490.052 186.427L490.047 186.444ZM486.329 198.806L486.006 199.882C485.732 200.251 485.356 200.48 485.072 200.287C484.877 200.156 484.736 200.023 484.634 199.884L485.544 196.856C485.57 197.369 485.625 197.908 486.017 198.225C486.207 198.372 486.306 198.582 486.329 198.806ZM504.831 132.728L502.586 140.192C502.232 140.41 501.934 140.681 501.619 140.948C501.545 141.015 501.48 141.05 501.399 141.08L504.087 132.143C504.326 132.306 504.573 132.506 504.831 132.728ZM485.539 196.872L484.629 199.901C484.384 199.574 484.361 199.17 484.459 198.424C484.489 198.144 484.479 197.816 484.437 197.479L485.009 195.576C485.489 195.72 485.5 196.283 485.539 196.872ZM483.257 201.401C484.138 200.872 484.478 199.801 483.839 199.465L483.257 201.401ZM504.087 132.143L501.399 141.08C500.919 141.296 500.649 140.692 500.201 140.323L502.421 132.942C503.816 133.884 503.776 133.656 503.37 132.487C503.089 131.681 503.501 131.751 504.092 132.127L504.087 132.143ZM485.009 195.576L484.437 197.479C484.353 196.497 484.163 195.448 484.8 195.549C484.867 195.569 484.938 195.572 485.004 195.592L485.009 195.576ZM483.834 199.481L483.252 201.417L483.235 201.412C482.816 201.665 482.237 201.852 481.641 202.034L482.089 200.544C482.721 200.301 482.35 199.197 483.69 199.42C483.74 199.435 483.79 199.45 483.823 199.46L483.834 199.481ZM490.232 173.47L490.456 172.725C490.712 172.712 490.833 172.911 490.709 173.144C490.594 173.345 490.392 173.536 490.227 173.487L490.232 173.47ZM502.416 132.958L500.196 140.339C500.079 140.25 499.956 140.177 499.807 140.132C499.708 140.102 499.625 140.077 499.537 140.069L501.797 132.556C501.936 132.633 502.087 132.733 502.282 132.864L502.416 132.958ZM490.456 172.725L490.232 173.47C490.232 173.47 490.109 173.397 490.068 173.295C489.909 172.922 489.986 172.728 490.346 172.729C490.384 172.722 490.423 172.716 490.461 172.709L490.456 172.725ZM482.089 200.544L481.641 202.034C481.36 202.13 481.078 202.225 480.808 202.343L481.341 200.572C481.467 200.574 481.592 200.575 481.718 200.577C481.877 200.589 481.991 200.569 482.094 200.528L482.089 200.544ZM485.706 186.058L486.024 184.999C486.451 185.561 486.596 186.398 485.984 186.214C485.884 186.184 485.79 186.138 485.701 186.075L485.706 186.058ZM498.049 145.017L498.218 144.454C498.548 144.86 498.815 145.41 498.407 145.269C498.274 145.229 498.162 145.123 498.049 145.017ZM501.797 132.556L499.537 140.069C498.928 139.994 498.627 140.336 497.733 139.887L497.667 139.867L497.966 138.874C498.798 138.746 498.635 138.209 498.195 138.113L500.011 132.073C500.011 132.073 500.177 132.122 500.26 132.147C501.095 132.489 500.839 131.961 501.802 132.539L501.797 132.556ZM498.213 144.471L498.044 145.034C497.689 144.656 497.517 144.027 497.831 144.121C497.942 144.173 498.083 144.305 498.213 144.471ZM486.024 184.999L485.706 186.058C485.069 185.596 484.864 184.416 485.508 184.555C485.707 184.615 485.887 184.796 486.029 184.983L486.024 184.999ZM481.341 200.572L480.808 202.343C480.371 202.536 479.99 202.782 479.781 203.117C479.246 204.056 479.59 202.012 479.567 201.428C479.546 200.898 480.346 200.58 481.324 200.567L481.341 200.572ZM483.308 187.611L483.626 186.552C484.338 186.946 485.011 188.25 484.019 188.006C483.755 187.926 483.505 187.797 483.308 187.611ZM497.184 141.472L497.383 140.811C497.822 141.033 497.853 141.71 497.356 141.56C497.29 141.54 497.224 141.521 497.184 141.472ZM500.011 132.073L498.195 138.113C498.062 138.073 497.915 138.083 497.769 138.148C497.483 138.26 497.092 138.359 496.726 138.375L498.687 131.855C499.093 131.887 499.531 131.928 500.011 132.073ZM497.966 138.874L497.672 139.851C496.717 139.365 496.838 139.022 497.949 138.869L497.966 138.874ZM497.383 140.811L497.184 141.472C496.777 141.206 496.65 140.608 497.273 140.759C497.306 140.769 497.355 140.784 497.388 140.794L497.383 140.811ZM483.626 186.552L483.308 187.611C482.701 187.05 482.544 186.19 483.438 186.459C483.504 186.479 483.57 186.499 483.631 186.535L483.626 186.552ZM483.606 181.998L483.82 181.287C484.095 181.694 484.23 182.204 483.734 182.055C483.684 182.04 483.651 182.03 483.601 182.015L483.606 181.998ZM494.949 144.283C495.486 144.481 495.697 142.577 496.164 142.645C496.576 142.715 496.557 140.977 496.174 140.212L494.954 144.267L494.949 144.283ZM498.961 130.945L499.14 130.349C499.65 130.574 499.663 131.192 499.183 131.047C499.1 131.023 499.034 131.003 498.961 130.945ZM499.14 130.349L498.961 130.945C498.554 130.678 498.334 130.089 498.996 130.288C499.046 130.303 499.096 130.317 499.145 130.332L499.14 130.349ZM498.692 131.838L496.731 138.359C496.218 138.385 495.766 138.267 495.695 137.903C495.631 137.577 495.348 137.257 494.941 137.171L496.987 130.369C497.19 130.953 497.367 131.566 497.764 131.685C498.062 131.775 498.363 131.793 498.692 131.838ZM496.169 140.229L494.949 144.283C494.949 144.283 494.827 144.21 494.759 144.136C494.079 143.336 494.19 144.109 493.539 144.653C493.315 144.856 492.973 144.916 492.617 144.899L493.941 140.497C494.693 140.037 495.156 139.635 495.82 139.889C495.952 139.929 496.081 140.04 496.169 140.229ZM483.825 181.27L483.611 181.982C482.913 181.664 482.454 180.551 483.347 180.82C483.496 180.864 483.693 181.05 483.825 181.27ZM482.13 179.768L482.354 179.023C483.078 179.494 483.735 180.251 483.032 180.129C482.757 180.083 482.436 179.95 482.13 179.768ZM496.987 130.369L494.941 137.171C494.584 137.099 494.127 137.178 493.646 137.575C493.236 137.921 492.842 138.272 492.489 138.544L495.356 129.012C495.703 129.117 496.001 129.206 496.249 129.281C496.613 129.39 496.813 129.866 497.003 130.374L496.987 130.369ZM493.941 140.497L492.617 144.899C491.998 144.857 491.392 144.531 491.457 144.135C491.57 143.519 492.092 142.864 492.048 142.292C491.998 141.735 491.897 141.47 493.166 140.914C493.457 140.785 493.721 140.629 493.941 140.497ZM482.354 179.023L482.13 179.768C481.329 179.31 480.653 178.62 481.561 178.658C481.786 178.69 482.074 178.813 482.359 179.006L482.354 179.023ZM477.323 188.969L477.547 188.224C477.804 188.211 477.924 188.41 477.8 188.643C477.686 188.844 477.484 189.036 477.318 188.986L477.323 188.969ZM480.827 177.319L480.912 177.037C480.955 177.195 480.941 177.299 480.827 177.319ZM495.356 129.012L492.489 138.544C492.115 138.829 491.758 138.992 491.429 138.948L494.52 128.671C494.803 128.81 495.079 128.911 495.361 128.996L495.356 129.012ZM480.912 177.037L480.827 177.319C480.827 177.319 480.718 177.322 480.635 177.297C480.42 177.232 480.213 177.08 480.016 176.894L480.275 176.034C480.558 176.354 480.833 176.761 480.912 177.037ZM477.552 188.208L477.328 188.953C477.328 188.953 477.206 188.88 477.164 188.777C477.006 188.405 477.082 188.211 477.443 188.211C477.481 188.205 477.519 188.198 477.557 188.191L477.552 188.208ZM475.925 190.498L476.707 187.899C476.686 188.687 476.364 189.637 475.925 190.498ZM494.515 128.687L491.424 138.964C491.27 138.936 491.11 138.87 490.969 138.737C490.283 138.079 489.541 138.145 488.599 137.916L491.864 127.06C492.262 126.819 492.666 126.796 493.149 127.59C493.448 128.096 493.972 128.452 494.51 128.704L494.515 128.687ZM480.275 176.034L480.016 176.894C479.408 176.278 479.056 175.288 479.743 175.585C479.875 175.625 480.077 175.794 480.275 176.034ZM476.702 187.916L475.92 190.514C475.718 190.887 475.499 191.254 475.279 191.567C474.48 192.662 472.739 194.61 471.483 194.828L474.922 183.393C475.408 184.838 476.057 186.279 476.446 186.847C476.629 187.136 476.717 187.506 476.702 187.916ZM470.791 197.128L471.338 195.308C471.817 195.398 472.02 195.802 471.761 196.301C471.554 196.69 471.162 197.095 470.791 197.128ZM476.565 177.931L476.928 176.723C477.138 177.526 477.475 178.386 476.753 178.024C476.687 178.004 476.626 177.968 476.565 177.931ZM492.87 123.717L493.089 122.989C493.592 123.176 493.99 124.072 493.097 123.803C493.014 123.778 492.948 123.758 492.87 123.717ZM483.457 147.215C483.619 147.516 483.524 147.831 483.752 147.972C484.047 148.132 484.568 148.56 484.025 148.685C483.482 148.811 483.104 149.347 482.96 149.105L482.914 149.019L483.457 147.215ZM493.089 122.989L492.87 123.717C492.143 123.372 492.071 122.593 493.056 122.979L493.089 122.989ZM491.864 127.06L488.599 137.916C488.5 137.886 488.417 137.861 488.318 137.831C487.706 137.647 487.097 137.212 486.523 137.021L489.957 125.602C490.799 125.621 491.471 125.787 491.133 126.19C490.525 126.892 490.94 127.793 491.469 127.356C491.608 127.253 491.735 127.129 491.869 127.043L491.864 127.06ZM476.923 176.74L476.56 177.948C475.648 177.439 475.496 176.924 474.91 176.893C474.784 176.891 474.648 176.922 474.513 176.953L475.349 174.173C476.037 174.344 477.108 175.045 476.842 175.687C476.74 175.909 476.834 176.316 476.944 176.728L476.923 176.74ZM474.927 183.376L471.488 194.811C471.145 194.871 470.859 194.803 470.606 194.564C470.2 194.172 469.8 193.943 469.456 193.767L473.935 178.873C474.193 179.095 474.359 179.506 474.29 180.153C474.209 180.904 474.502 182.148 474.922 183.393L474.927 183.376ZM471.343 195.291L470.796 197.112C470.551 197.146 470.334 197.027 470.192 196.659C469.82 195.736 470.009 195.287 470.852 195.306C471.042 195.273 471.206 195.268 471.343 195.291ZM482.456 150.541L482.506 150.376C482.506 150.376 482.471 150.492 482.456 150.541ZM483.546 146.917L483.765 146.189C483.979 146.56 484.112 147.015 483.93 147.141C483.839 147.204 483.689 147.104 483.541 146.934L483.546 146.917ZM484.079 145.146L484.547 143.591C485.101 143.848 485.021 144.834 484.71 144.668C484.399 144.503 484.512 145.746 484.095 145.151L484.079 145.146ZM485.084 141.803L485.249 141.257C485.775 141.488 485.726 142.069 485.24 141.886C485.19 141.871 485.124 141.851 485.084 141.803ZM490.201 124.791L490.37 124.228C490.502 124.449 490.461 124.707 490.201 124.791ZM490.903 122.458L491.216 121.415C491.423 121.568 491.527 121.761 491.447 122.026C491.373 122.274 491.169 122.412 490.903 122.458ZM483.202 146.922C483.319 147.011 483.399 147.107 483.457 147.215L482.914 149.019C482.747 148.734 482.446 148.174 482.506 148.697C482.583 149.28 482.51 149.403 482.267 149.311C482.024 149.22 481.906 148.589 481.966 148.21C482.026 147.831 482.426 148.421 482.68 148.118C482.933 147.815 482.815 146.589 483.197 146.938L483.202 146.922ZM491.221 121.399L490.908 122.441C490.408 122.543 489.67 122.357 489.186 122.284C488.862 122.223 488.523 121.85 488.419 121.476L488.608 120.847C488.78 120.755 489.053 120.747 489.467 120.871C490.144 121.02 490.847 121.142 491.221 121.399ZM490.37 124.228L490.201 124.791C490.082 124.827 489.901 124.827 489.681 124.779C488.657 124.525 488.778 123.641 489.73 123.837C490.054 123.899 490.261 124.051 490.37 124.228ZM489.957 125.602L486.523 137.021C486.081 136.87 485.687 136.86 485.375 137.235C484.794 137.908 484.045 138.658 483.204 138.874L487.111 125.883C487.413 125.901 487.729 125.87 488.141 125.76C488.591 125.642 489.333 125.577 489.962 125.585L489.957 125.602ZM485.249 141.257L485.084 141.803C484.682 141.52 484.516 140.874 485.133 141.222C485.166 141.232 485.215 141.247 485.249 141.257ZM484.547 143.591L484.079 145.146C483.667 144.535 484.05 143.261 484.464 143.566C484.497 143.576 484.514 143.581 484.547 143.591ZM483.765 146.189C483.621 145.947 483.418 145.724 483.264 145.695C482.736 145.591 483.168 146.496 483.541 146.934L483.76 146.205L483.765 146.189ZM482.506 150.376L482.456 150.541C482.456 150.541 482.415 150.619 482.372 150.642C482.099 150.831 481.918 151.191 481.749 151.574C481.585 151.939 481.219 152.317 480.879 152.305C480.54 152.293 480.232 152.236 480.08 152.443C479.927 152.65 479.701 152.564 479.625 152.216C479.585 151.988 479.551 151.743 479.36 151.595L479.554 150.95C479.869 151.044 480.124 151.157 480.422 150.886C480.879 150.446 481.173 150.787 481.445 150.363C481.722 149.923 481.894 149.29 482.24 149.52C482.424 149.629 482.541 150.08 482.501 150.392L482.506 150.376ZM475.349 174.173L474.513 176.953C473.927 177.102 473.241 177.401 472.937 176.552C472.729 176.164 472.519 175.542 472.342 174.929L472.935 172.96C473.666 173.288 474.684 174.045 475.25 174.143C475.283 174.153 475.316 174.163 475.349 174.173ZM473.935 178.873L469.456 193.767C468.817 193.431 468.298 193.238 468.02 192.361C467.82 191.705 467.765 190.931 467.709 190.336L470.521 180.986C470.693 181.074 470.931 181.182 471.219 181.304C472.199 181.527 472.581 180.018 472.829 179.19C472.984 178.677 473.548 178.54 473.935 178.873ZM479.062 152.588C479.394 152.381 479.464 152.33 479.373 152.032C479.324 152.017 479.295 151.991 479.241 151.992L479.062 152.588ZM481.172 145.571L482.809 140.127C483.407 140.361 483.761 140.864 483.696 141.801C483.612 143.039 482.729 144.055 481.914 144.784C481.685 145.004 481.425 145.269 481.172 145.571ZM488.603 120.864L488.414 121.493C488.33 121.233 488.371 120.974 488.603 120.864ZM487.09 125.895L483.183 138.886C482.966 138.947 482.747 138.953 482.506 138.917C482.44 138.897 482.385 138.898 482.33 138.9L486.297 125.71C486.595 125.8 486.843 125.875 487.095 125.878L487.09 125.895ZM482.809 140.127L481.172 145.571C480.817 145.97 480.425 146.375 479.986 146.694L482.012 139.959C482.012 139.959 482.128 139.994 482.182 139.992C482.412 140.007 482.616 140.05 482.809 140.127ZM479.554 150.95L479.36 151.595C479.259 151.511 479.094 151.461 478.87 151.484C478.723 151.494 478.64 151.469 478.558 151.444L478.692 150.997C478.692 150.997 478.859 150.921 478.973 150.901C479.185 150.857 479.384 150.917 479.549 150.966L479.554 150.95ZM479.241 151.992L479.062 152.588C478.745 152.8 478.895 151.942 479.241 151.992ZM472.935 172.96L472.342 174.929C472.042 173.828 471.943 172.716 472.526 172.819C472.642 172.854 472.774 172.894 472.94 172.943L472.935 172.96ZM470.521 180.986L467.709 190.336C467.651 189.687 467.59 189.29 467.297 189.545C466.972 189.844 467.103 190.19 466.951 190.036L469.917 180.173C469.95 180.544 470.087 180.748 470.521 180.986ZM478.149 152.801L478.373 152.056C478.489 152.272 478.471 152.573 478.149 152.801ZM486.297 125.71L482.33 138.9C481.445 138.904 481.312 139.767 482.012 139.959L479.986 146.694C479.643 146.934 479.261 147.126 478.847 147.182C478.564 147.223 478.317 147.203 478.092 147.172L484.652 125.36C484.892 125.342 485.139 125.362 485.387 125.437C485.751 125.546 486.032 125.631 486.297 125.71ZM478.697 150.981L478.563 151.427C478.374 151.335 478.444 151.103 478.697 150.981ZM478.373 152.056L478.149 152.801C478.149 152.801 478.037 152.875 477.972 152.91C477.174 153.284 477.5 151.541 478.016 151.804C478.163 151.795 478.314 151.894 478.39 152.061L478.373 152.056ZM469.912 180.19L466.946 190.053C466.85 189.952 466.612 189.664 466.086 189.072C465.939 188.902 465.786 188.748 465.646 188.615L469.06 177.263C469.06 177.263 469.088 177.289 469.116 177.316C469.718 177.894 469.973 178.548 469.932 179.582C469.924 179.85 469.919 180.047 469.924 180.211L469.912 180.19ZM470.253 173.236L470.502 172.409C470.891 172.796 471.266 173.649 470.637 173.46C470.504 173.42 470.365 173.342 470.248 173.253L470.253 173.236ZM484.652 125.36L478.092 147.172C477.663 147.097 477.331 146.943 477.033 146.853L483.449 125.521C483.755 125.523 484.182 125.363 484.657 125.343L484.652 125.36ZM470.502 172.409L470.253 173.236C469.715 172.804 469.473 171.991 470.25 172.225C470.333 172.25 470.422 172.313 470.507 172.392L470.502 172.409ZM469.049 177.241L465.634 188.594C465.292 188.292 464.974 188.088 464.67 187.961L467.77 177.651C468.401 177.714 468.527 176.814 469.049 177.241ZM475.039 153.544L475.283 152.733C475.283 152.733 475.316 152.743 475.311 152.759C475.529 152.933 475.626 154.171 475.039 153.544ZM483.46 125.543L477.045 146.874C476.775 146.811 476.518 146.824 476.258 147.089C475.62 147.709 475.602 148.191 474.797 148.166L482.174 123.64C482.559 123.918 482.832 124.271 482.875 124.789C482.926 125.4 483.149 125.558 483.455 125.559L483.46 125.543ZM475.288 152.716L475.044 153.527C474.48 152.942 474.99 152.446 475.288 152.716ZM467.787 177.656L464.686 187.966C463.938 187.632 463.312 187.733 462.907 187.701L465.878 177.821C466.105 178.269 465.896 178.783 466.343 178.737C467.008 178.685 466.872 177.398 467.65 177.632C467.699 177.647 467.749 177.662 467.782 177.672L467.787 177.656ZM472.198 156.75L472.422 156.005C472.673 156.008 472.799 156.191 472.675 156.424C472.56 156.624 472.358 156.816 472.193 156.766L472.198 156.75ZM473.641 151.95L474.447 149.269C474.447 149.269 474.497 149.465 474.517 149.579C474.695 150.607 475.103 152.191 474.154 152.105C473.946 152.078 473.78 152.028 473.641 151.95ZM482.207 123.47C482.412 123.567 482.622 123.649 482.844 123.751C483.797 124.182 483.535 122.895 482.732 122.743C482.649 122.718 482.55 122.689 482.461 122.626L482.207 123.47ZM482.466 122.609L482.212 123.453C481.957 123.34 481.735 123.238 481.524 123.102L481.837 122.059C482.041 122.283 482.254 122.473 482.466 122.609ZM482.162 123.619C481.972 123.471 481.739 123.347 481.489 123.218L473.107 151.086C473.162 151.445 473.335 151.768 473.641 151.95L474.447 149.269C474.188 148.452 473.646 148.036 474.572 148.134C474.639 148.154 474.731 148.146 474.786 148.144L482.162 123.619ZM472.422 156.005L472.198 156.75C472.198 156.75 472.075 156.677 472.034 156.574C471.875 156.202 471.952 156.008 472.312 156.008C472.351 156.002 472.389 155.995 472.427 155.988L472.422 156.005ZM465.862 177.817L462.89 187.696L462.857 187.686C462.66 187.681 462.427 187.557 462.172 187.444L465.223 177.3C465.577 177.442 465.758 177.623 465.862 177.817ZM481.832 122.076L481.519 123.118C481.213 122.936 480.916 122.721 480.662 122.427L481.015 121.252C481.295 121.463 481.561 121.778 481.832 122.076ZM481.489 123.218C481.189 123.073 480.89 122.929 480.557 122.775L472.638 149.104C472.89 149.469 473.212 149.836 473.118 150.331C473.076 150.589 473.051 150.853 473.091 151.081L481.472 123.213L481.489 123.218ZM465.223 177.3L462.172 187.444C461.856 187.295 461.524 187.141 461.216 187.084L463.784 178.545C464.383 178.292 463.932 176.911 465.074 177.255C465.124 177.27 465.174 177.285 465.207 177.295L465.223 177.3ZM464.874 174.921L465.083 174.226C465.404 174.178 465.579 174.375 465.429 174.636C465.304 174.87 465.038 175.096 464.874 174.921ZM467.333 166.746L467.796 165.207C468.32 165.202 468.588 165.571 468.335 166.054C468.122 166.46 467.68 166.85 467.333 166.746ZM481.015 121.252L480.662 122.427C480.662 122.427 480.582 122.331 480.543 122.283C479.962 121.513 479.838 120.844 480.313 121.005C480.542 120.966 480.78 121.073 481.015 121.252ZM480.552 122.791L472.633 149.121C472.456 148.869 472.313 148.627 472.338 148.364C472.421 147.848 472.458 147.245 471.74 146.813L479.2 122.006L479.273 122.064C479.665 122.38 480.104 122.602 480.547 122.808L480.552 122.791ZM467.796 165.207L467.333 166.746C467.2 166.706 467.093 166.583 467.01 166.378C466.686 165.595 466.85 165.229 467.572 165.23C467.648 165.216 467.724 165.203 467.796 165.207ZM465.083 174.226L464.874 174.921C464.874 174.921 464.806 174.846 464.788 174.787C464.629 174.414 464.706 174.221 465.066 174.221L465.083 174.226ZM463.784 178.545L461.216 187.084C460.924 187.033 460.658 187.079 460.481 187.368C460.199 187.825 459.798 187.957 459.371 187.937L462.238 178.405C462.405 178.329 462.707 178.347 463.269 178.517C463.501 178.586 463.665 178.581 463.789 178.528L463.784 178.545ZM464.41 171.244L464.659 170.417C464.925 170.912 465.062 171.476 464.598 171.337C464.532 171.317 464.466 171.297 464.41 171.244ZM467.018 162.572L467.297 161.646C467.611 161.921 467.756 162.398 467.269 162.576C467.167 162.617 467.079 162.609 467.018 162.572ZM467.66 160.438L468.008 159.279C468.316 159.697 468.236 160.503 467.66 160.438ZM468.526 157.558L468.899 156.317C469.634 156.574 469.047 157.805 468.526 157.558ZM479.222 121.994L471.761 146.801C471.577 146.692 471.356 146.589 471.074 146.505C469.651 146.077 468.937 147.432 469.83 147.7C470.724 147.969 468.874 149.56 469.358 150.59C469.826 151.615 470.154 153.464 469.229 153.962C468.303 154.459 467.797 155.48 466.976 155.63C466.155 155.78 464.259 156.564 463.002 156.185C462.836 156.136 462.671 156.086 462.479 156.064L473.483 119.474C473.851 119.513 474.298 119.647 474.875 119.947C476.607 120.847 477.84 120.947 479.238 121.999L479.222 121.994ZM468.899 156.317L468.866 156.307C468.206 155.982 468.005 157.311 468.526 157.558L468.899 156.317ZM468.008 159.279L467.66 160.438C467.66 160.438 467.511 160.393 467.428 160.368C466.487 159.959 466.676 158.788 467.696 159.059C467.828 159.099 467.929 159.183 468.008 159.279ZM467.301 161.629L467.023 162.556C466.591 162.372 466.456 161.321 467.028 161.457C467.128 161.487 467.217 161.55 467.306 161.613L467.301 161.629ZM464.659 170.417L464.41 171.244C463.803 170.863 463.553 169.651 464.126 169.787C464.275 169.832 464.485 170.094 464.659 170.417ZM462.255 178.41L459.388 187.942C459.032 187.925 458.668 187.816 458.309 187.69C457.551 187.39 456.736 187.939 456.316 187.415C455.896 186.892 457.018 186.58 456.831 185.044C456.648 183.491 457.162 182.021 456.946 181.18C456.746 180.344 457.744 178.948 459.248 179.346C460.757 179.728 461.741 179.699 461.9 179.169C461.994 178.855 461.98 178.544 462.228 178.438L462.255 178.41ZM457.734 171.781L457.948 171.069C458.861 171.452 459.074 172.184 457.85 171.816C457.817 171.806 457.767 171.791 457.734 171.781ZM458.734 168.454L459.177 166.982C459.349 166.889 459.571 166.811 459.876 166.759C461.49 166.432 462.398 165.153 463.291 165.422C463.848 165.553 463.637 166.374 463.194 167.305C462.752 168.237 460.506 170.305 460.019 170.122C459.533 169.94 458.884 169.276 458.767 168.645C458.766 168.59 458.742 168.547 458.741 168.493L458.734 168.454ZM461.964 157.714L462.258 156.738C462.668 156.933 462.472 158.065 462.021 157.767C461.988 157.757 461.976 157.736 461.964 157.714ZM473.83 118.261L474.323 116.623C474.655 116.777 474.988 116.931 475.336 117.036C476.494 117.384 475.139 118.348 473.901 118.265L473.835 118.245L473.83 118.261ZM474.318 116.64L473.825 118.278C472.599 118.216 471.259 118.589 470.466 119.307C469.668 120.041 470.647 120.625 471.589 120.132C472.213 119.796 472.694 119.399 473.483 119.474L462.479 156.064C461.254 155.876 459.792 156.177 460.076 157.453C460.409 158.925 460.687 159.983 460.61 160.537C460.534 161.092 459.423 161.245 458.578 162.073C457.75 162.907 457.186 162.142 456.718 161.117C456.607 160.885 456.48 160.648 456.348 160.428L469.856 115.514C470.328 114.844 470.443 113.742 471.587 113.96C473.192 114.442 471.046 115.457 472.13 115.693C472.895 115.851 473.58 116.273 474.318 116.64ZM462.258 156.738C462.258 156.738 462.225 156.728 462.208 156.723C461.675 156.635 461.577 157.381 461.964 157.714L462.258 156.738ZM459.182 166.965L458.739 168.438C458.637 167.938 458.477 167.33 459.182 166.965ZM457.948 171.069L457.734 171.781C456.491 171.353 456.28 170.495 457.655 170.963C457.754 170.993 457.853 171.023 457.948 171.069ZM453.8 168.901L454.76 165.707C455.671 166.938 456.246 168.807 456 169.744C455.717 170.867 454.542 169.973 453.8 168.901ZM455.004 164.896C455.479 165.599 455.787 166.792 456.116 165.7C456.385 164.806 456.038 163.619 455.621 162.844L455.009 164.88L455.004 164.896ZM469.856 115.514L456.348 160.428C455.888 159.676 455.369 159.123 455.2 159.686C454.986 160.397 454.583 161.738 455.127 162.208C455.284 162.346 455.449 162.576 455.628 162.882L455.016 164.918C454.941 164.805 454.878 164.714 454.789 164.651C454.187 164.073 454.91 162.63 454.332 161.969C453.755 161.309 453.525 160.752 454.533 159.684C455.54 158.615 455.067 157.607 453.991 157.283C453.081 157.009 453.876 155.985 453.683 155.187L465.863 114.692C467.005 114.855 467.05 115.482 467.681 115.365C468.371 115.23 469.256 116.308 469.795 115.658C469.805 115.625 469.853 115.585 469.879 115.557L469.856 115.514ZM454.765 165.691L453.805 168.885C453.616 168.611 453.461 168.348 453.343 168.078C452.775 166.788 451.856 164.202 453.227 164.506C453.771 164.616 454.304 165.065 454.749 165.686L454.765 165.691ZM451.734 161.549C451.899 161.599 452.118 161.412 452.216 161.207C452.34 160.973 452.215 160.791 451.963 160.788L451.739 161.532L451.734 161.549ZM467.034 110.677L467.452 109.287C467.452 109.287 467.518 109.307 467.551 109.317C468.298 109.054 470.635 109.865 469.757 109.782C468.875 109.715 468.295 111.165 467.368 110.886C467.236 110.846 467.113 110.773 467.034 110.677ZM467.034 110.677L467.452 109.287C466.879 109.151 466.587 110.182 467.034 110.677ZM465.834 114.666L453.655 155.161C453.624 155.025 453.559 154.88 453.452 154.757C452.718 153.959 451.914 153.031 450.458 153.369C448.987 153.703 447.16 154.615 446.684 154.58C446.618 154.56 446.548 154.611 446.478 154.663L457.816 116.964C457.973 117.282 457.98 117.681 457.999 117.976C458.022 118.56 458.877 119.918 459.098 120.742C459.32 121.567 459.574 121.86 459.763 121.231C459.952 120.602 459.644 119.589 459.338 119.226C459.037 118.847 459.981 117.507 459.242 116.906C458.507 116.288 458.258 115.076 459.374 115.267C460.489 115.458 460.734 115.423 461.406 115.048C462.074 114.689 463.934 114.563 465.467 114.627C465.609 114.634 465.73 114.652 465.851 114.671L465.834 114.666ZM451.958 160.804L451.734 161.549C451.734 161.549 451.612 161.476 451.57 161.373C451.412 161.001 451.488 160.807 451.849 160.807C451.887 160.801 451.925 160.794 451.963 160.788L451.958 160.804ZM444.975 159.661L445.433 158.138C445.971 158.39 446.025 159.651 445.2 159.692C445.124 159.705 445.041 159.68 444.975 159.661ZM457.816 116.964L446.478 154.663C446.149 154.979 445.954 156.165 445.51 156.862C444.977 157.676 444.316 158.253 443.712 157.981C443.313 157.807 443.079 156.726 442.823 155.657L453.648 119.663C453.648 119.663 453.779 119.648 453.862 119.673C454.491 119.862 454.796 121.127 455.69 121.395C456.583 121.664 456.176 120.08 455.334 119.339C454.918 118.98 454.366 118.778 453.967 118.603L454.927 115.41C455.472 115.519 453.635 117.186 455.476 116.946C457.507 116.673 456.054 116.344 457.002 116.431C457.458 116.477 457.699 116.694 457.828 116.986L457.816 116.964ZM445.438 158.121C445.438 158.121 445.355 158.097 445.306 158.082C444.546 157.727 444.338 159.379 444.98 159.644L445.438 158.121ZM440.975 161.742L441.174 161.08C441.5 161.015 441.692 161.218 441.558 161.484C441.433 161.717 441.145 161.955 440.975 161.742ZM441.368 160.434L441.507 159.971C441.507 159.971 441.545 160.145 441.494 160.256C441.474 160.322 441.421 160.378 441.368 160.434ZM441.627 159.574L441.851 158.829C442.102 158.833 442.228 159.015 442.104 159.248C441.989 159.448 441.787 159.64 441.622 159.59L441.627 159.574ZM454.916 115.388L453.955 118.582C453.839 118.547 453.734 118.479 453.661 118.421L454.562 115.426C454.562 115.426 454.621 115.408 454.659 115.401C454.779 115.365 454.871 115.357 454.937 115.376L454.916 115.388ZM453.632 119.658L442.806 155.652C442.762 155.44 442.701 155.223 442.651 155.028L453.078 120.357C453.377 120.086 453.426 119.74 453.632 119.658ZM441.851 158.829L441.627 159.574C441.627 159.574 441.504 159.501 441.463 159.398C441.433 159.317 441.404 159.236 441.402 159.181L441.487 158.9C441.487 158.9 441.627 158.852 441.736 158.849C441.775 158.842 441.813 158.836 441.851 158.829ZM441.507 159.971L441.368 160.434C441.257 160.563 441.106 160.644 440.979 160.588L441.203 159.843C441.35 159.833 441.461 159.885 441.507 159.971ZM441.174 161.08L440.975 161.742C440.975 161.742 440.94 161.677 440.917 161.634C440.758 161.262 440.83 161.084 441.174 161.08ZM441.611 158.486L441.72 158.122C441.72 158.122 441.747 158.275 441.679 158.38C441.664 158.43 441.637 158.458 441.606 158.503L441.611 158.486ZM454.557 115.442L453.656 118.438C453.444 118.302 453.38 118.156 453.592 117.931C453.878 117.638 453.84 117.104 453.847 116.601L454.111 115.723C454.217 115.611 454.356 115.508 454.535 115.454L454.557 115.442ZM453.078 120.357L442.651 155.028C442.602 154.832 442.536 154.632 442.486 154.437L452.66 120.61C452.843 120.539 452.977 120.453 453.078 120.357ZM441.725 158.106L441.616 158.47C441.5 158.615 441.339 158.729 441.207 158.69L441.431 157.945C441.578 157.935 441.679 158.02 441.725 158.106ZM441.402 159.181L441.487 158.9C441.4 158.946 441.371 159.046 441.402 159.181ZM441.203 159.843L440.979 160.588C440.979 160.588 440.878 160.504 440.848 160.422C440.795 160.298 440.771 160.201 440.774 160.129L440.829 159.947C440.829 159.947 440.984 159.85 441.127 159.857C441.143 159.861 441.181 159.855 441.203 159.843ZM441.993 156.075L442.173 155.479C442.257 155.559 442.277 155.673 442.194 155.828C442.147 155.923 442.063 156.024 441.988 156.091L441.993 156.075ZM454.133 115.712L453.869 116.589C453.881 116.25 453.937 115.942 454.133 115.712ZM452.66 120.61C452.519 120.658 452.362 120.701 452.176 120.718C450.759 120.869 450.496 120.122 451.369 119.5C452.242 118.879 452.749 118.454 452.917 116.934C453.08 115.431 453.753 114.154 452.805 114.067C451.856 113.981 450.556 116.026 450.312 116.836C450.068 117.647 450.617 118.101 449.541 117.778C448.466 117.454 448.425 116.269 447.631 116.03C446.836 115.791 447.18 116.869 446.386 116.63C445.79 116.451 444.836 116.381 443.858 116.393L435.238 145.056C435.454 145.176 435.661 145.328 435.827 145.558C436.589 146.563 436.538 145.772 438.16 146.26C439.782 146.748 439.737 146.536 440.671 147.99C441.606 149.444 442.208 150.022 443.019 150.266C443.83 150.51 441.848 152.837 442.361 154.074C442.413 154.198 442.45 154.317 442.498 154.458L452.671 120.632L452.66 120.61ZM442.178 155.463L441.998 156.058C441.838 156.172 441.664 156.21 441.558 155.962C441.399 155.589 441.476 155.396 441.837 155.396C441.989 155.37 442.11 155.388 442.182 155.446L442.178 155.463ZM441.431 157.945L441.207 158.69C441.207 158.69 441.085 158.617 441.043 158.514C440.885 158.141 440.961 157.948 441.322 157.948C441.36 157.942 441.398 157.935 441.436 157.928L441.431 157.945ZM440.774 160.129L440.829 159.947C440.797 159.992 440.774 160.129 440.774 160.129ZM430.111 162.102L430.335 161.357C430.592 161.344 430.712 161.543 430.588 161.776C430.49 161.981 430.272 162.168 430.106 162.118L430.111 162.102ZM433.74 150.037L435.034 145.735C435.657 145.94 436.174 146.384 436.397 146.903C436.737 147.691 434.303 149.305 433.824 149.937C433.814 149.97 433.771 149.993 433.723 150.032L433.74 150.037ZM444.455 114.407L445.635 110.485C446.729 110.147 446.971 108.325 448.758 108.862C450.777 109.469 449.902 107.997 452.04 109.29C453.377 109.584 451.781 110.872 450.672 110.539C449.563 110.205 446.265 111.631 445.629 112.667C445.18 113.38 444.864 114.368 444.455 114.407ZM445.635 110.485L444.455 114.407C444.303 114.434 444.141 114.313 443.936 114.035L444.991 110.526C444.991 110.526 445.117 110.528 445.172 110.526C445.347 110.543 445.499 110.517 445.635 110.485ZM443.858 116.393L435.238 145.056C435.054 144.947 434.86 144.871 434.683 144.799L443.219 116.418C443.421 116.406 443.64 116.4 443.858 116.393ZM435.034 145.735L433.74 150.037C433.579 150.152 433.335 150.241 433.031 150.294L434.434 145.627C434.648 145.637 434.835 145.675 435.029 145.751L435.034 145.735ZM430.335 161.357L430.111 162.102C430.111 162.102 429.989 162.029 429.947 161.926C429.789 161.554 429.865 161.36 430.226 161.36C430.264 161.354 430.302 161.347 430.34 161.34L430.335 161.357ZM431.304 156.036L431.528 155.291C431.779 155.295 431.905 155.477 431.781 155.71C431.666 155.91 431.464 156.102 431.299 156.053L431.304 156.036ZM444.991 110.526L443.936 114.035C443.936 114.035 443.873 113.944 443.838 113.879C443.073 112.584 443.621 110.583 444.991 110.526ZM443.219 116.418L434.683 144.799C434.318 144.635 433.973 144.459 433.78 144.022L442.306 115.674C443.208 115.855 441.61 116.547 442.832 116.446C442.963 116.431 443.088 116.433 443.219 116.418ZM434.439 145.61L433.036 150.277C432.693 150.336 432.284 150.376 431.864 150.394L433.392 145.313C433.567 145.51 433.784 145.63 434.062 145.605C434.193 145.59 434.319 145.592 434.439 145.61ZM431.528 155.291L431.304 156.036C431.304 156.036 431.181 155.963 431.14 155.86C430.981 155.488 431.058 155.294 431.419 155.295C431.457 155.288 431.495 155.281 431.533 155.275L431.528 155.291ZM431.078 153.008L431.301 152.264C431.558 152.251 431.679 152.449 431.554 152.683C431.44 152.883 431.238 153.075 431.073 153.025L431.078 153.008ZM442.306 115.674L433.78 144.022C433.721 143.86 433.666 143.681 433.632 143.436C433.436 141.807 432.193 141.74 432.453 142.793C432.652 143.575 432.868 144.776 433.37 145.325L431.842 150.405C431.073 150.444 430.258 150.452 429.803 150.586C429.445 150.695 429.015 150.926 428.614 151.058L439.091 116.223C439.922 115.859 440.919 115.545 442.081 115.642C442.169 115.651 442.24 115.654 442.29 115.669L442.306 115.674ZM431.301 152.264L431.078 153.008C431.078 153.008 430.955 152.935 430.914 152.833C430.755 152.46 430.831 152.267 431.192 152.267C431.23 152.26 431.268 152.254 431.306 152.247L431.301 152.264ZM422.414 171.733L424.33 165.362C424.898 164.973 425.458 164.672 425.799 164.739C426.857 165.003 426.478 166.26 425.609 166.631C424.74 167.001 425.264 170.298 424.43 170.372C423.84 170.412 423.133 171.264 422.431 171.738L422.414 171.733ZM427.192 155.846C428.145 155.14 429.099 154.308 429.712 153.59C430.936 152.1 429.83 151.875 428.749 151.929C428.624 151.927 428.498 151.926 428.377 151.907L427.192 155.846ZM439.108 116.228L428.631 151.063C427.954 151.275 427.356 151.221 427.213 149.897C427.198 149.766 427.178 149.652 427.164 149.521L437.128 116.39C438.065 116.636 437.394 114.124 438.371 114.418C439.347 114.712 437.851 116.806 438.752 116.391C438.876 116.339 438.984 116.281 439.108 116.228ZM428.377 151.907C427.784 151.838 427.217 151.504 426.709 150.973L424.813 157.278C425.46 156.985 426.341 156.456 427.197 155.83L428.382 151.891L428.377 151.907ZM424.33 165.362L422.414 171.733C422.119 171.933 421.811 172.057 421.532 172.027C420.555 171.914 421.611 169.904 421.256 169.165L421.843 167.212C422.08 166.905 422.33 166.673 422.535 166.59C422.886 166.443 423.628 165.836 424.33 165.362ZM422.722 164.228L422.946 163.484C423.203 163.471 423.324 163.669 423.199 163.903C423.085 164.103 422.883 164.295 422.717 164.245L422.722 164.228ZM437.111 116.385L427.147 149.516C426.824 147.47 425.78 145.063 425.683 143.283C425.567 141.39 425.262 140.125 424.603 140.035C423.949 139.929 424.418 143.589 424.682 144.931C424.963 146.279 425.107 148.38 425.859 149.779C426.114 150.252 426.393 150.643 426.693 150.968L424.796 157.273C424.796 157.273 424.629 157.349 424.548 157.379C423.228 157.866 422.401 159.656 421.693 159.732C420.984 159.808 421.661 160.498 421.789 161.331C421.939 162.152 421.32 164.511 420.605 165.27C419.889 166.029 418.755 166.861 418.018 166.73C417.282 166.598 416.804 167.826 417.241 168.355C417.661 168.878 416.71 169.458 415.605 169.234C414.504 168.993 414.692 172.569 413.691 172.358C412.689 172.147 411.136 173.051 409.658 172.805C408.301 172.577 406.603 172.644 406.113 171.631L416.755 136.249C417.299 136.72 417.853 136.976 418.218 136.545C418.826 135.843 419.899 136.473 420.826 136.932C421.748 137.408 423.348 138.268 424.266 138.454C425.185 138.64 426.322 138.098 426.666 137.317C426.992 136.531 425.801 135.992 424.278 135.534C422.756 135.076 422.207 134.622 422.74 133.808C423.274 132.994 423.964 132.318 424.88 132.214C425.8 132.094 426.562 132.143 427.372 132.386C428.183 132.63 429.07 133.583 430.076 133.777C431.077 133.988 430.999 132.99 430.17 132.145C429.353 131.322 429.415 130.456 429.996 130.144C430.577 129.831 430.447 129.305 429.501 129.508C428.556 129.711 427.049 130.521 426.999 129.73C426.948 128.938 424.789 128.975 424.471 130.034C424.152 131.093 424.357 131.371 423.796 131.978C423.218 132.581 422.259 132.888 421.561 132.569C420.874 132.273 421.265 133.852 420.449 133.986C419.628 134.136 419.533 133.133 419.36 132.088C419.182 131.06 418.977 130.421 418.711 129.745L421.359 120.941C421.895 121.319 422.328 121.738 422.954 121.457C423.855 121.042 422.937 119.593 423.996 119.912C425.055 120.23 425.941 120.587 425.369 119.549C424.802 118.494 425.743 119.264 426.771 119.086C427.799 118.908 427.93 118.172 426.8 118.03C425.669 117.889 424.587 118.249 424.463 117.039C424.34 115.829 426.059 114.974 427.009 114.394C427.965 113.797 426.199 112.887 425.624 113.779C425.066 114.675 423.851 114.815 423.193 115.682C422.535 116.549 423.602 117.862 422.676 118.36C422.396 118.51 422.166 118.676 421.958 118.83L424.81 109.347C425.064 109.279 425.31 109.245 425.518 109.271C426.855 109.385 429.13 108.301 430.365 109.357C431.599 110.414 432.199 110.397 433.031 111.531C433.863 112.665 433.629 113.082 434.755 113.601C435.858 114.132 435.665 115.734 434.242 115.306C432.819 114.878 432.152 113.793 431.488 114.081C430.825 114.368 431.749 115.134 432.106 115.927C432.463 116.72 433.305 117.46 433.832 117.33C434.358 117.199 433.286 115.903 434.183 116.461C435.08 117.02 436.043 117.417 435.578 116.682C435.109 115.964 436.057 116.05 437.05 116.349L437.083 116.359L437.111 116.385ZM422.951 163.467C422.951 163.467 422.88 163.464 422.837 163.487C422.476 163.487 422.405 163.664 422.559 164.053C422.6 164.156 422.656 164.209 422.722 164.228L422.946 163.484L422.951 163.467ZM421.821 167.224C421.374 167.811 421.023 168.68 421.239 169.16L421.821 167.224ZM418.379 130.909C418.545 130.598 418.687 130.244 418.653 129.999L418.379 130.909ZM427.099 101.915L428.169 98.3569C428.298 98.4678 428.46 98.5888 428.65 98.7362C430.769 99.3733 430.019 99.7072 430.819 100.706C431.615 101.721 429.79 103.049 428.67 101.611C427.744 100.431 427.638 102.041 427.115 101.92L427.099 101.915ZM428.169 98.3569L427.099 101.915C426.983 101.88 426.849 101.786 426.684 101.555C425.749 100.282 425.748 99.5056 427.102 99.8045C428.439 100.098 426.227 98.3323 425.401 98.8598C424.575 99.3872 423.999 96.5613 425.819 97.1088C427.408 97.5866 427.284 97.6395 428.169 98.3569ZM424.854 109.378L422.002 118.861C421.489 119.248 421.105 119.566 420.658 119.431C420.029 119.242 419.096 120.423 419.1 119.45C419.104 118.477 418.857 117.319 418.11 117.582C417.347 117.84 416.988 119.392 416.556 117.891C416.123 116.389 415.949 114.388 417.136 113.68C418.323 112.972 419.825 112.54 420.835 111.761C421.68 111.113 423.525 109.719 424.876 109.367L424.854 109.378ZM421.365 120.979C421.142 120.822 420.897 120.676 420.599 120.587C419.623 120.293 419.207 120.655 418.049 120.307C416.89 119.958 417.581 119.282 416.853 119.063C416.125 118.844 415.92 120.244 415.102 120.684C414.392 121.066 413.294 121.475 412.263 121.544L410.107 128.71C410.583 128.69 410.942 127.914 410.979 126.951C411.013 125.878 412.592 126.75 414.031 127.183C415.471 127.616 415.343 128.642 416.227 129.305C417.093 129.963 416.924 130.886 416.551 132.127C416.177 133.369 417.661 131.974 418.003 131.499C418.102 131.349 418.26 131.125 418.384 130.892L418.658 129.982C418.631 129.83 418.54 129.712 418.358 129.657C417.647 129.443 417.544 129.124 417.104 128.306C416.665 127.488 417.32 127.288 417.768 128.018C418.238 128.737 418.418 129.098 418.706 129.762L421.349 120.974L421.365 120.979ZM416.766 136.271L406.125 171.652C406.125 171.652 406.042 171.447 406.023 171.333C405.742 169.985 407.037 169.581 406.334 168.016C405.637 166.435 406.589 165.548 406.127 164.146C405.664 162.743 405.492 160.436 406.61 159.599C407.728 158.762 408.336 158.061 407.704 157.582C407.072 157.103 408.526 156.169 407.722 155.242C406.935 154.319 406.819 152.425 407.405 151.736C408.013 151.034 408.499 149.719 407.34 149.37C406.48 149.111 405.383 148.258 404.342 147.819L409.479 130.74C410.068 130.701 410.657 130.662 411.518 130.921C413.222 131.433 414.653 131.178 414.084 132.468C413.515 133.759 415.124 134.531 415.853 135.346C416.124 135.644 416.435 135.991 416.755 136.249L416.766 136.271ZM412.477 120.832L412.701 120.088C412.952 120.091 413.078 120.273 412.954 120.507C412.839 120.707 412.637 120.899 412.472 120.849L412.477 120.832ZM412.701 120.088L412.477 120.832C412.477 120.832 412.354 120.76 412.313 120.657C412.154 120.284 412.231 120.091 412.591 120.091C412.629 120.084 412.668 120.078 412.706 120.071L412.701 120.088ZM412.258 121.561L410.103 128.726C410.103 128.726 410.015 128.718 409.965 128.703C409.816 128.658 409.667 128.613 409.508 128.602L411.629 121.552C411.629 121.552 411.754 121.554 411.821 121.574C411.963 121.58 412.11 121.57 412.274 121.566L412.258 121.561ZM409.49 130.762L404.354 147.84C404.16 147.764 403.967 147.688 403.758 147.661L408.825 130.814C409.043 130.808 409.262 130.801 409.485 130.778L409.49 130.762ZM412.798 117.663L413.022 116.918C413.279 116.905 413.4 117.104 413.275 117.337C413.161 117.537 412.959 117.729 412.793 117.679L412.798 117.663ZM413.027 116.902L412.803 117.646C412.803 117.646 412.681 117.573 412.64 117.471C412.481 117.098 412.557 116.905 412.918 116.905C412.956 116.898 412.994 116.892 413.032 116.885L413.027 116.902ZM411.629 121.552L409.508 128.602C409.108 128.554 408.744 128.624 408.675 129.091C408.569 129.745 408.334 129.566 407.778 129.796C407.513 129.896 407.188 130.015 406.844 130.02L408.138 125.717C408.958 125.693 409.638 125.05 409.155 124.255C408.559 123.299 409.139 122.391 409.824 121.731C410.467 121.094 410.647 121.455 411.634 121.535L411.629 121.552ZM408.846 130.803L403.78 147.65C403.631 147.605 403.455 147.588 403.308 147.598C402.657 147.601 402.078 147.607 401.553 147.612L406.715 130.45C406.94 130.482 407.215 130.529 407.529 130.623C408.042 130.777 408.447 130.809 408.841 130.819L408.846 130.803ZM409.572 120.951C409.926 120.913 410.308 120.902 410.689 121.017C411.996 121.41 411.257 118.769 411.669 118.117C412.072 117.499 412.502 115.769 411.229 115.44L409.567 120.968L409.572 120.951ZM411.234 115.424L409.572 120.951C408.694 121.048 407.992 121.342 408.127 120.354C408.322 118.987 408.192 119.057 409.555 118.907C410.917 118.757 410.167 115.013 411.047 115.386C411.113 115.406 411.163 115.421 411.212 115.435L411.234 115.424ZM408.133 125.734L406.839 130.037C406.473 130.053 406.088 129.955 405.782 129.592C405.487 129.251 404.933 129.175 404.486 129.04L405.735 124.886C406.546 125.13 406.69 125.372 407.65 125.661C407.815 125.711 407.974 125.722 408.133 125.734ZM406.72 130.434L401.558 147.595C401.05 147.605 400.602 147.596 400.181 147.614C399.837 147.619 399.489 147.334 399.142 146.868L404.025 130.634C404.215 130.601 404.417 130.59 404.609 130.611C405.382 130.681 405.76 130.326 406.72 130.434ZM407.29 119.778C407.525 119.776 407.773 119.671 407.974 119.424C408.645 118.633 409.132 117.011 408.308 116.872C408.259 116.857 408.225 116.847 408.176 116.832L407.285 119.794L407.29 119.778ZM411.904 104.437L412.222 103.378C412.222 103.378 412.371 103.423 412.454 103.447C413.166 103.661 413.299 105.019 412.388 104.745C412.19 104.685 412.028 104.564 411.909 104.42L411.904 104.437ZM411.904 104.437L412.222 103.378C411.524 103.24 411.502 103.973 411.904 104.437ZM408.181 116.816L407.29 119.778C406.803 119.776 406.439 119.305 406.761 118.716C407.223 117.899 406.969 116.343 408.181 116.816ZM405.747 124.908L404.498 129.062C404.051 128.927 403.697 128.785 403.831 128.338C404.1 127.444 403.58 126.891 404.266 126.231C404.957 125.555 404.749 124.626 405.643 124.895L405.742 124.925L405.747 124.908ZM404.025 130.634L399.142 146.868C398.585 146.141 398.038 145.02 397.545 144.078C397.186 143.411 396.657 142.53 396.3 141.737L398.172 135.514C398.798 134.873 399.663 133.076 400.516 133.242C401.434 133.428 402.362 132.624 402.605 131.813C402.795 131.184 403.349 130.72 404.056 130.589L404.025 130.634ZM399.653 130.528C399.819 130.578 400.037 130.391 400.135 130.186C400.26 129.953 400.134 129.771 399.882 129.767L399.658 130.512L399.653 130.528ZM406.014 109.379L406.656 107.244C407.583 107.523 407.731 108.469 406.932 108.969C406.685 109.129 406.367 109.286 406.014 109.379ZM411.081 92.5318L411.504 91.1251C412.54 91.4006 414.05 93.0999 412.731 92.8656C412.236 92.7709 411.626 92.6414 411.081 92.5318ZM411.504 91.1251L411.081 92.5318C410.877 92.4886 410.69 92.4504 410.515 92.4337L410.908 91.1264C410.908 91.1264 411.06 91.1 411.137 91.0868C411.251 91.067 411.372 91.0853 411.509 91.1086L411.504 91.1251ZM406.656 107.244L406.014 109.379C405.814 109.445 405.602 109.489 405.379 109.512L406.085 107.162C406.304 107.156 406.491 107.194 406.656 107.244ZM399.882 129.767L399.658 130.512C399.658 130.512 399.536 130.439 399.495 130.336C399.336 129.964 399.412 129.77 399.773 129.77C399.811 129.764 399.849 129.757 399.887 129.75L399.882 129.767ZM398.145 135.543L396.274 141.765C396.133 141.452 396.004 141.161 395.942 140.889L396.335 139.582C397.229 139.129 396.979 138.819 396.738 138.241L397.31 136.338C397.549 136.085 397.804 135.837 398.013 135.683C398.056 135.66 398.087 135.615 398.135 135.576L398.145 135.543ZM398.45 132.548L398.679 131.787C398.909 131.802 399.002 131.975 398.883 132.191C398.795 132.363 398.598 132.539 398.455 132.532L398.45 132.548ZM410.908 91.1264L410.515 92.4337C409.74 92.3091 409.206 92.3468 409.51 92.8353C410.067 93.7427 407.852 93.7263 408.782 94.6555C409.712 95.5848 408.956 96.8373 407.847 96.5038C406.738 96.1703 407.701 97.2899 406.603 97.8801C405.505 98.4703 405.574 99.1407 404.383 98.7823C403.191 98.424 405.26 101.085 403.903 100.677C402.546 100.269 401.603 101.844 403.015 102.07C404.422 102.313 404.16 102.884 402.516 103.129C400.872 103.375 398.572 102.683 397.56 103.588C396.548 104.492 394.024 103.643 393.721 104.653C393.417 105.662 391.862 109.273 390.113 108.007C388.365 106.741 388.522 104.659 388.119 103.239C387.716 101.818 389.291 100.902 388.637 100.254C388.005 99.5953 391.058 98.3841 390.019 98.721C388.996 99.063 387.892 97.8108 389.147 97.8994C390.413 98.0096 390.341 96.6886 389.423 96.683C388.504 96.6774 387.685 95.98 389.053 95.4529C390.415 94.9424 389.828 95.0363 389.141 94.5592C388.812 94.3338 388.83 93.8521 388.783 93.3506L391.48 84.381C393.089 85.1535 392.878 86.3352 393.912 86.3756C395.013 86.436 393.462 83.5515 395.548 85.857C397.639 88.146 396.276 85.8956 397.385 86.2291C398.494 86.5625 397.106 84.3949 399.034 85.0649C400.962 85.735 401.321 84.5434 403.786 85.285C406.765 86.1809 411.369 90.2544 408.743 89.0856C406.133 87.9218 402.501 86.7391 403.897 88.2778C405.293 89.8165 406.211 87.9633 406.528 89.0692C406.845 90.1751 408.133 89.552 408.633 90.3518C409.097 91.087 409.971 91.2416 410.854 91.128L410.908 91.1264ZM406.09 107.146L406.057 107.136C405.37 106.839 405.048 106.832 404.257 106.161C403.466 105.49 402.043 106.921 403.128 108.475C403.745 109.364 404.599 109.585 405.4 109.501L406.107 107.151L406.09 107.146ZM398.679 131.787L398.45 132.548C398.45 132.548 398.285 132.499 398.237 132.358C398.078 131.985 398.154 131.792 398.515 131.792C398.575 131.774 398.63 131.772 398.679 131.787ZM397.315 136.322L396.743 138.225C396.743 138.225 396.684 138.063 396.637 137.976C396.464 137.473 396.855 136.833 397.315 136.322ZM396.34 139.565L395.947 140.873C395.782 140.282 395.817 139.805 396.254 139.612L396.34 139.565ZM368.519 160.847L375.223 138.556C375.727 139.159 376.217 139.631 376.78 139.8C377.889 140.133 377.373 141.187 377.045 142.28C376.716 143.372 378.151 143.822 379.541 144.781C380.909 145.752 381.612 145.873 382.872 147.263C384.116 148.647 384.309 149.265 383.215 150.145C382.12 151.025 379.991 152.225 379.42 153.822C378.855 155.402 377.366 156.633 376.224 156.47C375.065 156.302 373.797 156.859 373.568 157.62C373.339 158.381 372.412 157.741 371.897 159.156C371.381 160.571 369.619 161.81 369.103 161.366C368.974 161.255 368.76 161.064 368.535 160.852L368.519 160.847ZM382.116 115.635L382.938 112.905C383.679 113.38 383.617 114.246 383.727 115.019C383.859 115.961 383.362 116.714 382.262 115.751L382.116 115.635ZM398.043 129.701C398.369 129.637 398.561 129.839 398.427 130.105C398.293 130.372 397.94 130.645 397.781 130.272C397.623 129.9 397.699 129.706 398.06 129.706L398.043 129.701ZM391.513 84.391L388.816 93.3605C388.766 92.8043 388.623 92.2017 387.883 91.7808C387.155 91.3814 386.308 91.1987 385.509 90.9763L387.45 84.5222C389.343 84.9473 389.433 83.5669 391.237 84.2898C391.336 84.3197 391.414 84.3611 391.492 84.4025L391.513 84.391ZM382.938 112.905L382.116 115.635C381.091 114.786 380.493 114.552 381.322 113.538C382.198 112.484 381.533 112.356 382.34 112.671C382.572 112.741 382.771 112.8 382.916 112.916L382.938 112.905ZM375.228 138.539L368.524 160.831C367.827 160.206 366.936 159.451 367.296 160.534C367.781 161.979 367.784 162.63 366.716 162.76C365.736 162.898 364.198 164.113 363.639 163.693L372.115 135.51C372.608 135.73 373.137 136.07 373.657 136.623C374.244 137.251 374.74 137.941 375.228 138.539ZM377.91 116.301L378.238 115.209C378.932 115.363 378.716 116.562 378.054 116.363C378.004 116.348 377.955 116.333 377.905 116.318L377.91 116.301ZM379.07 112.445C379.253 112.735 379.377 112.863 379.707 112.547C380.234 112.056 381.042 111.829 382.481 112.262C383.921 112.695 382.236 110.619 382.663 110.097C383.091 109.576 381.891 108.945 381.417 108.062C381.069 107.416 381.383 106.193 381.185 105.412L379.07 112.445ZM382.683 100.431L383.002 99.3716C383.16 99.9246 383.061 100.436 382.683 100.431ZM387.869 83.1867C387.962 83.1785 388.071 83.1753 388.164 83.1671C388.786 83.1377 388.614 82.8695 388.068 82.5248L387.869 83.1867ZM388.068 82.5248L387.869 83.1867C387.389 83.2228 386.975 83.2788 386.611 83.3497L387.019 81.9927C387.418 82.1668 387.795 82.3525 388.068 82.5248ZM387.466 84.5272L385.525 90.9813C385.144 90.8668 384.764 90.7524 384.426 90.6147L385.526 86.9574C386.15 86.8023 386.197 86.1667 385.885 85.7659L386.338 84.2599C386.563 84.2915 386.821 84.3331 387.135 84.4277C387.251 84.4625 387.35 84.4924 387.45 84.5222L387.466 84.5272ZM383.007 99.3551L382.688 100.414C382.579 100.417 382.451 100.361 382.279 100.273C382.051 100.132 381.818 100.008 381.619 99.9484L382.157 98.1611C382.157 98.1611 382.213 98.2141 382.241 98.2406C382.627 98.5189 382.875 98.9544 382.985 99.3667L383.007 99.3551ZM381.185 105.412L379.07 112.445C378.972 112.29 378.873 112.079 378.703 111.866C378.6 111.727 378.373 111.64 378.115 111.599L380.196 104.681C380.305 104.678 380.442 104.701 380.652 104.783C380.945 104.889 381.106 105.136 381.185 105.412ZM378.238 115.209L377.91 116.301C377.354 115.99 377.333 115.099 378.063 115.192C378.118 115.191 378.189 115.194 378.238 115.209ZM372.126 135.531L363.65 163.714C363.65 163.714 363.566 163.635 363.531 163.57C363.115 162.795 362.993 163.498 362.814 164.094C362.685 164.525 362.356 165.256 361.894 165.532L371.023 135.181C371.354 135.281 371.723 135.374 372.122 135.548L372.126 135.531ZM372.128 131.507L372.197 131.276C372.255 131.383 372.247 131.471 372.128 131.507ZM376.672 116.398C376.672 116.398 376.738 116.418 376.788 116.433C377.268 116.577 377.444 115.692 376.921 115.571L376.677 116.382L376.672 116.398ZM377.105 114.958C377.105 114.958 377.196 114.895 377.244 114.856C377.886 114.399 377.91 113.721 377.652 113.138L377.11 114.942L377.105 114.958ZM380.703 102.993L381.176 101.421C381.472 102.178 381.14 102.8 380.703 102.993ZM387.019 81.9927L386.611 83.3497C386.226 83.4322 385.88 83.5628 385.562 83.7198L386.184 81.6512C386.477 81.7573 386.748 81.875 387.019 81.9927ZM386.338 84.2599L385.885 85.7659C385.885 85.7659 385.766 85.6218 385.688 85.5804C385.091 85.1661 384.967 84.1365 386.333 84.2765L386.338 84.2599ZM385.526 86.9574L384.426 90.6147C384.127 90.4705 383.854 90.2982 383.645 90.0911L383.914 89.1975C384.475 88.9513 385.232 88.8359 384.602 88.5922C384.469 88.5523 384.304 88.5026 384.138 88.4528L384.601 86.9137C384.998 87.0332 385.309 87.0185 385.526 86.9574ZM382.157 98.1611L381.619 99.9484C380.863 99.7029 380.386 100.029 381.019 101.103C381.094 101.216 381.135 101.319 381.171 101.438L380.698 103.01C380.45 103.116 380.165 103.102 379.919 102.902L379.818 102.817L381.744 96.4129C381.747 97.0634 381.723 97.742 382.162 98.1445L382.157 98.1611ZM380.196 104.681L378.115 111.599C377.824 111.547 377.485 111.536 377.185 111.572L379.032 105.432C379.032 105.432 379.119 105.44 379.157 105.434C379.917 105.428 379.716 104.717 380.196 104.681ZM377.652 113.138L377.11 114.942C376.729 115.188 376.361 115.33 376.025 115.428L376.986 112.234C377.261 112.461 377.505 112.787 377.652 113.138ZM376.921 115.571C376.921 115.571 376.838 115.546 376.8 115.552C376.245 115.476 376.276 116.153 376.677 116.382L376.921 115.571ZM372.192 131.292L372.123 131.524C372.123 131.524 371.888 131.525 371.677 131.444C371.529 131.399 371.39 131.321 371.262 131.265L371.416 130.752L371.449 130.762C371.797 130.866 372.1 131.12 372.187 131.309L372.192 131.292ZM371.028 135.165L361.899 165.515C361.727 165.608 361.553 165.646 361.338 165.581C360.577 165.352 361.38 167.904 360.87 168.039C360.696 168.077 360.365 168.338 360.002 168.644L370.141 134.934C370.141 134.934 370.273 134.974 370.339 134.994C370.538 135.053 370.753 135.118 371.011 135.16L371.028 135.165ZM386.167 81.6462L385.545 83.7148C385.27 83.8487 385.023 84.0091 384.788 84.191C384.366 84.5151 383.634 84.7282 382.888 84.8104L384.022 81.0372C384.138 81.0721 384.271 81.1119 384.413 81.1186C384.891 81.2083 385.515 81.414 386.167 81.6462ZM384.589 86.8922L384.127 88.4313C383.4 88.2669 382.452 88.1802 381.942 87.9547L382.345 86.6142C382.764 86.3613 383.227 86.5006 384.436 86.864C384.485 86.8789 384.518 86.8889 384.568 86.9038L384.589 86.8922ZM383.903 89.176L383.634 90.0696L383.594 90.0216C383.232 89.6059 383.509 89.3462 383.903 89.176ZM381.728 96.4079L379.801 102.812C379.393 102.491 378.693 101.938 377.9 101.392L380.081 94.144C380.459 94.3843 380.815 94.5815 381.06 94.7273C381.672 95.0919 381.708 95.7524 381.711 96.4029L381.728 96.4079ZM379.015 105.427L377.168 111.567C376.52 111.624 376 111.793 376.446 111.927C376.612 111.977 376.796 112.086 376.969 112.229L376.009 115.423C375.282 115.619 374.663 115.577 374.163 115.86C373.861 116.022 373.606 116.27 373.373 116.507L377.549 102.622C377.987 103.205 378.266 103.776 378.167 104.107C377.948 104.835 378.204 105.364 379.037 105.416L379.015 105.427ZM371.405 130.73L371.251 131.244C370.572 130.859 370.382 130.351 371.405 130.73ZM370.141 134.934L360.002 168.644C359.272 169.273 358.39 170.163 358.39 170.163C358.39 170.163 358.115 171.379 357.417 170.339C357.371 170.253 357.308 170.162 357.262 170.076L362.129 153.891C362.689 153.59 363.313 153.435 363.161 152.74C362.927 151.658 363.856 150.729 363.415 150.037C363.392 149.994 363.357 149.929 363.317 149.881L368.066 134.093C368.404 134.646 369.414 134.77 370.136 134.95L370.141 134.934ZM369.157 130.524L369.506 129.365C369.588 129.39 369.671 129.415 369.77 129.445C370.53 129.619 370.074 130.836 369.28 130.597C369.23 130.582 369.18 130.567 369.147 130.557L369.157 130.524ZM384.044 81.0257L382.909 84.7988C382.125 84.8877 381.325 84.8457 380.877 84.6567C379.975 84.2953 379.867 86.7532 379.189 86.5491C379.139 86.5342 379.089 86.5193 379.03 86.5375L381.08 79.7193C381.279 79.779 381.461 79.8337 381.643 79.8885C382.884 80.2618 382.788 80.702 384.032 81.0041L384.044 81.0257ZM382.362 86.6192C382.163 86.7399 381.994 86.9417 381.757 87.2494C381.494 87.5853 381.626 87.8055 381.959 87.9597L382.362 86.6192ZM380.097 94.149L377.917 101.397C377.068 100.799 376.138 100.231 375.425 99.9623C375.276 99.9175 375.154 99.8446 375.043 99.7932L375.436 98.4858C376.618 98.6969 376.614 97.6309 377.533 97.2756C378.16 97.0311 378.16 96.508 377.535 95.7065C377.274 95.3752 376.932 95.0737 376.541 94.8119L377.318 92.2303C377.786 92.714 379.073 93.5342 380.092 94.1656L380.097 94.149ZM377.544 102.639L373.368 116.523C372.99 116.879 372.632 117.168 372.07 116.999C371.143 116.72 369.993 118.684 369.764 119.446C369.674 119.743 369.347 119.934 368.962 120.071L374.746 100.841C374.872 100.843 375.014 100.849 375.168 100.877C375.992 101.017 376.94 101.825 377.565 102.627L377.544 102.639ZM369.511 129.349L369.162 130.507C368.502 130.182 368.14 129.045 369.511 129.349ZM368.087 134.082L363.339 149.869C362.934 149.116 362.6 147.644 361.723 147.381C360.797 147.102 361.241 146.225 361.475 145.447C361.515 145.315 361.51 145.151 361.455 144.972L363.929 136.747C364.045 136.601 364.11 136.386 364.108 136.151L364.929 133.421C365.35 133.583 365.763 133.708 366.137 133.604C366.945 133.377 367.878 132.738 367.971 133.686C367.981 133.833 368.018 133.953 368.097 134.049L368.087 134.082ZM362.129 153.891L357.262 170.076C356.708 168.917 356.739 166.652 356.609 165.945C356.466 165.162 356.921 165.209 357.688 164.519C358.454 163.83 358.576 163.126 358.526 161.433C358.47 159.756 358.994 158.614 359.951 158.253C360.892 157.886 361.065 155.809 361.399 154.7C361.518 154.303 361.823 154.069 362.146 153.896L362.129 153.891ZM366.552 128.026L366.751 127.364C367.53 127.652 367.884 128.517 367.057 128.268C366.875 128.213 366.686 128.12 366.552 128.026ZM367.149 126.04L367.468 124.981C368.25 125.559 368.494 126.968 367.963 126.393C367.692 126.095 367.417 126.048 367.149 126.04ZM375.894 96.9633C376.003 96.9601 376.134 96.9453 376.27 96.9139C377.197 96.6514 376.866 96.0106 376.223 95.8711L375.889 96.9799L375.894 96.9633ZM377.447 91.8L377.621 91.2208C378.02 91.5753 378.104 91.8352 377.518 91.8034L377.452 91.7835L377.447 91.8ZM381.075 79.7358L379.025 86.554C378.424 86.5718 377.491 87.5726 376.553 87.6332L377.951 82.9829C378.842 82.962 379.051 82.6278 378.175 82.2382L378.987 79.5407C379.713 79.5247 380.42 79.5748 381.08 79.7193L381.075 79.7358ZM377.621 91.2208L377.447 91.8C377.07 91.7948 377.074 91.9587 377.323 92.2138L376.546 94.7954C375.96 94.4027 375.295 94.0944 374.681 93.8556L375.816 90.0824C376.493 90.4123 377.223 90.8663 377.621 91.2208ZM376.223 95.8711L375.889 96.9799C375.134 96.9694 374.978 96.1102 375.905 95.8477C376.014 95.8445 376.118 95.8578 376.223 95.8711ZM375.436 98.4858L375.043 99.7932C374.025 99.2165 374.154 98.1903 375.32 98.451C375.353 98.4609 375.403 98.4759 375.436 98.4858ZM374.719 100.869L368.936 120.099C368.308 120.325 367.509 120.464 367.115 120.814C366.48 121.363 366.624 122.146 366.265 123.338C366.066 124 365.864 124.192 365.611 123.953L370.345 108.215C370.485 108.708 370.731 108.909 371.025 108.113C371.59 106.533 371.899 105.507 372.578 105.711C373.256 105.915 372.914 104.892 373.024 103.625C373.121 102.463 373.342 100.888 374.714 100.885L374.719 100.869ZM367.468 124.981L367.149 126.04C366.826 126.033 366.512 126.119 366.292 125.89C365.892 125.481 366.273 124.694 367.107 124.8C367.239 124.84 367.362 124.913 367.484 124.986L367.468 124.981ZM366.751 127.364L366.552 128.026C366.032 127.653 365.89 127.105 366.585 127.314C366.652 127.334 366.701 127.349 366.751 127.364ZM364.924 133.437L364.103 136.168C364.108 135.79 364.019 135.367 363.965 135.007C363.892 134.589 363.204 134.418 362.547 134.202L362.945 132.878C363.129 132.987 363.327 133.047 363.551 133.024C363.955 133.001 364.443 133.238 364.941 133.442L364.924 133.437ZM363.924 136.764L361.45 144.988C361.269 144.212 360.506 143.026 360.173 142.096L361.253 138.505C361.253 138.505 361.312 138.487 361.35 138.48C362.407 138.328 362.376 136.93 363.378 136.96C363.646 136.969 363.813 136.893 363.924 136.764ZM364.826 126.623L365.09 125.745C365.802 126.14 365.962 127.108 365.121 126.783C365.005 126.748 364.916 126.686 364.826 126.623ZM372.969 99.5484L373.123 99.0354C373.237 99.3765 373.206 99.6016 372.969 99.5484ZM375.98 89.5363L376.279 88.5434C376.985 88.9543 377.341 89.332 376.826 89.4839C376.566 89.5682 376.277 89.5713 375.98 89.5363ZM378.982 79.5573L378.17 82.2547C377.993 82.1834 377.767 82.0972 377.502 82.0176C377.237 81.9379 376.989 81.8633 376.774 81.7986L377.426 79.6307C377.939 79.6045 378.473 79.5668 378.982 79.5573ZM377.946 82.9994L376.548 87.6497C376.4 87.6595 376.242 87.6478 376.093 87.603C375.811 87.5184 375.454 87.447 375.075 87.3872L376.448 82.8196C376.448 82.8196 376.531 82.8445 376.581 82.8595C377.125 82.9691 377.581 83.0157 377.925 83.011L377.946 82.9994ZM376.284 88.5268L375.985 89.5197C375.53 89.4731 375.034 89.3238 374.569 89.1298L374.947 87.8721C375.445 88.076 375.917 88.3081 376.284 88.5268ZM375.816 90.0824L374.681 93.8556C374.244 93.6881 373.831 93.5637 373.5 93.4641C373.434 93.4442 373.351 93.4193 373.268 93.3944L374.408 89.6047C374.507 89.6346 374.606 89.6645 374.727 89.6827C375.03 89.7558 375.406 89.8868 375.811 90.099L375.816 90.0824ZM373.123 99.0354L372.969 99.5484C372.969 99.5484 372.82 99.5036 372.714 99.4357C372.319 99.1904 371.903 99.1918 371.516 99.2197L372.024 97.5317C372.515 97.878 372.962 98.5536 373.107 99.0304L373.123 99.0354ZM370.366 108.204L365.633 123.942C365.436 123.756 365.214 123.292 364.935 122.541C364.869 122.34 364.777 122.168 364.662 122.008L369.645 105.442C370.116 105.855 370.401 106.229 370.296 106.576C370.182 106.957 370.221 107.727 370.366 108.204ZM365.09 125.745L364.826 126.623C364.118 126.157 363.943 125.238 364.835 125.633C364.918 125.658 365.017 125.687 365.09 125.745ZM362.94 132.895L362.542 134.219C361.963 134.044 361.388 133.854 361.289 133.463C361.283 133.425 361.276 133.387 361.27 133.349L361.887 131.297C362.072 132.002 362.467 132.608 362.94 132.895ZM361.253 138.505L360.173 142.096C360.113 141.934 360.059 141.755 360.032 141.603C359.835 140.46 360.248 138.726 361.253 138.505ZM371.272 100.031L371.317 99.8816C371.396 99.7973 371.592 99.7478 371.943 99.7811C373.093 99.8564 372.728 100.649 372.161 100.677C371.811 100.698 371.313 100.314 371.272 100.031ZM372.228 96.8532L373.089 93.9902C373.089 93.9902 373.238 94.035 373.321 94.0599C374.222 94.4214 373.919 97.2897 372.91 96.9861C372.695 96.9214 372.474 96.8732 372.244 96.8582L372.228 96.8532ZM377.414 79.6091L376.762 81.777C375.34 81.4036 375.152 81.4912 374.152 80.7937C374.018 80.6992 373.884 80.6048 373.772 80.4988L374.105 79.39C374.105 79.39 374.221 79.4248 374.287 79.4448C375.181 79.7135 376.278 79.6646 377.414 79.6091ZM376.453 82.8031L375.08 87.3706C373.86 87.1662 372.438 86.9732 372.805 86.2352C373.279 85.2589 374.103 84.6769 375.229 84.6545C376.321 84.6221 374.53 82.4773 376.465 82.8246L376.453 82.8031ZM374.925 87.8836C374.206 87.5769 373.471 87.3198 372.964 87.2036C372.441 87.0824 372.129 86.8621 371.93 86.6219L371.492 88.0782C371.744 88.0817 372.062 88.1051 372.465 88.2626C373.035 88.4699 373.784 88.8578 374.547 89.1413L374.925 87.8836ZM374.408 89.6047L373.268 93.3944C372.216 92.9336 371.03 91.4761 371.269 90.6818C371.508 89.8874 372.323 89.158 374.408 89.6047ZM373.089 93.9902L372.228 96.8532C371.394 96.7467 370.621 96.857 370.621 96.857C370.621 96.857 369.89 98.3876 368.946 98.1039C368.748 98.0442 368.605 98.0375 368.486 98.0738L369.765 93.8207C370.49 93.5696 370.987 94.0798 370.865 94.7832C370.744 95.4866 371.39 95.5003 371.618 94.739C371.828 94.044 372.316 93.7397 373.094 93.9737L373.089 93.9902ZM372.024 97.5317C371.901 97.4588 371.795 97.3908 371.68 97.356C370.703 97.2428 369.953 97.5766 370.141 98.752C370.278 99.4969 370.846 99.2887 371.516 99.2197L372.024 97.5317ZM371.322 99.8651L371.277 100.014C371.277 100.014 371.274 99.9048 371.322 99.8651ZM369.645 105.442L364.662 122.008C363.907 120.86 362.473 120.826 361.639 120.9L366.895 103.424C367.069 103.567 367.276 103.719 367.515 103.881C368.331 104.47 369.133 104.982 369.666 105.431L369.645 105.442ZM361.87 131.292L361.253 133.344C361.096 132.485 361.502 130.657 360.111 130.239C359.665 130.105 359.324 129.858 359.014 129.567L360.204 125.611C360.891 125.367 361.404 125.341 361.245 125.87C360.991 126.714 360.189 128.783 361.463 129.166C362.737 129.549 361.614 130.222 361.852 131.232L361.87 131.292ZM372.289 85.4304L372.513 84.6857C372.805 84.9722 372.754 85.4439 372.289 85.4304ZM372.722 83.9906C372.852 83.9758 372.988 83.9445 373.124 83.9131C374.573 83.5367 374.158 81.9143 373.463 81.5248L372.722 83.9906ZM374.1 79.4066L373.767 80.5153C372.903 79.7864 372.513 78.9834 374.1 79.4066ZM373.458 81.5414C373.458 81.5414 373.409 81.5264 373.376 81.5165C372.639 81.2048 373.188 79.9803 371.533 79.663C370.201 79.1721 371.533 81.5218 371.064 82.4815C370.637 83.3635 371.447 84.1486 372.717 84.0072L373.458 81.5414ZM372.508 84.7022L372.284 85.4469C372.284 85.4469 372.092 85.4253 371.981 85.3739C371.041 85.019 371.27 84.2578 372.164 84.5265C372.296 84.5664 372.428 84.6062 372.508 84.7022ZM371.93 86.6219L371.492 88.0782C371.044 88.0696 370.789 88.1373 370.538 87.5926C370.146 86.7349 369.908 85.3642 370.967 85.8631C371.462 85.7774 371.547 86.2178 371.93 86.6219ZM369.76 93.8373L368.481 98.0904C368.069 98.201 368.09 98.7307 367.408 98.5978C366.539 98.4267 366.247 99.999 365.737 100.134C365.232 100.253 365.756 100.97 365.651 101.679C365.543 102.278 365.844 102.657 366.873 103.436L361.618 120.911C360.674 120.989 359.739 120.076 358.796 120.514C358.628 120.59 358.425 120.727 358.211 120.897L366.463 93.4592C367.57 93.7381 368.09 93.75 367.829 93.2384C367.47 92.5711 367.567 91.9504 367.161 91.7383C367.095 91.7184 367.055 91.6703 367.021 91.6058L367.299 90.679C367.299 90.679 367.488 90.5914 367.619 90.5766C368.402 90.4332 368.742 89.9037 368.968 90.7116C369.194 91.5195 368.237 92.2422 369.189 92.4382C370.14 92.6342 369.083 94.0487 369.782 93.8257L369.76 93.8373ZM360.204 125.611L359.014 129.567C358.328 128.909 357.832 128.038 356.738 127.655C356.556 127.6 356.401 127.517 356.24 127.451L357.031 124.82C357.501 125.719 358.086 126.653 358.926 126.201C359.335 125.982 359.798 125.76 360.199 125.628L360.204 125.611ZM366.628 92.9131C367.038 92.9283 367.035 92.6386 366.807 92.3174L366.628 92.9131ZM368.414 86.972C368.73 87.1212 369.035 87.2489 369.382 87.3534C370.326 87.6371 369.3 86.6068 368.643 86.2108L368.414 86.972ZM368.907 85.3337C369.382 85.675 370.816 85.3483 370.236 85.1741C369.541 84.965 370.778 84.0919 370.067 83.8779C369.835 83.8082 369.537 83.899 369.259 84.1041L368.891 85.3287L368.907 85.3337ZM369.32 83.9601L369.629 82.9341C369.839 83.3762 369.706 83.8776 369.32 83.9601ZM369.355 88.1032C368.26 87.8459 368.117 88.5609 368.171 89.2809C368.23 89.9845 368.561 90.084 368.858 89.7581C369.171 89.4372 370.22 89.6084 370.657 89.0542C371.095 88.5 370.117 88.3322 369.355 88.1032ZM369.629 82.9341L369.32 83.9601C369.168 83.9865 368.959 83.9599 368.719 83.7975C368.263 83.5158 367.864 83.3417 367.467 83.2223L367.875 81.8652C368.174 82.0095 368.474 82.1537 368.805 82.2532C369.219 82.3776 369.483 82.6377 369.612 82.9291L369.629 82.9341ZM369.27 84.1256L368.902 85.3502C368.796 85.2823 368.738 85.1747 368.762 85.0373C368.81 84.6368 369.025 84.3406 369.27 84.1256ZM368.643 86.2108C368.537 86.1429 368.46 86.1014 368.377 86.0765C367.798 85.9023 367.971 84.9076 367.077 84.6389L367.06 84.6339L366.637 86.0406C367.23 86.2909 367.809 86.6455 368.419 86.9555L368.648 86.1942L368.643 86.2108ZM367.294 90.6956L367.016 91.6223C366.839 91.3706 366.902 90.9204 367.294 90.6956ZM366.807 92.3174L366.628 92.9131C366.502 92.9114 366.348 92.8831 366.133 92.8184C365.471 92.6193 365.029 92.288 364.834 91.9767L365.028 91.3313C365.159 91.3165 365.356 91.3216 365.587 91.3912C366.051 91.5306 366.555 91.953 366.795 92.2958L366.807 92.3174ZM366.463 93.4592L358.211 120.897C357.272 121.68 356.18 123.21 356.62 124.028C356.747 124.265 356.881 124.54 357.031 124.82L356.24 127.451C355.596 127.131 355.031 126.672 354.538 126.271L364.577 92.8918C364.754 92.9631 364.964 93.0444 365.196 93.1141C365.676 93.2584 366.106 93.3878 366.475 93.4808L366.463 93.4592ZM365.418 90.0951L366.289 87.199C366.398 87.1958 366.524 87.1975 366.645 87.2158C367.605 87.5045 366.62 89.1574 367.137 89.2405C367.67 89.3286 366.555 90.455 365.545 90.1514C365.496 90.1365 365.446 90.1216 365.396 90.1066L365.418 90.0951ZM368.29 80.5463L368.449 80.0167C368.563 79.9969 368.727 79.9921 368.926 80.0518C369.877 80.2478 370.115 81.6185 369.188 81.3398C368.758 81.2104 368.414 80.8543 368.295 80.5298L368.29 80.5463ZM368.29 80.5463L368.449 80.0167C368.227 80.0944 368.184 80.2979 368.29 80.5463ZM367.892 81.8702L367.483 83.2272C367.103 83.1128 366.75 83.0248 366.365 82.9269L366.852 81.3051C367.208 81.5023 367.526 81.7061 367.887 81.8868L367.892 81.8702ZM367.055 84.6504L366.632 86.0571C366.632 86.0571 366.516 86.0223 366.467 86.0073C365.543 85.6574 366.026 84.2326 367.055 84.6504ZM366.284 87.2155L365.413 90.1116C365.031 89.9425 364.697 89.5533 364.488 89.1658L364.762 88.2556C365.517 88.4465 366.066 88.3592 365.742 87.9368C365.458 87.5626 365.711 87.2598 366.284 87.2155ZM365.04 91.3528L364.845 91.9982C364.65 91.6869 364.697 91.4121 365.04 91.3528ZM364.582 92.8753L354.543 126.255C354.195 125.97 353.881 125.695 353.558 125.507L363.543 92.3101C363.811 92.499 364.145 92.7078 364.582 92.8753ZM363.951 90.9531L364.055 90.6056C364.055 90.6056 364.183 90.662 364.249 90.6819C364.629 90.7963 364.426 90.9336 363.951 90.9531ZM366.857 81.2885L366.37 82.9103C366.138 82.8406 365.89 82.766 365.641 82.6913C365.32 82.5587 365.066 82.2655 364.886 81.9045L365.294 80.5475C365.901 80.7482 366.379 81.0184 366.857 81.2885ZM364.762 88.2556L364.488 89.1658C364.187 88.6061 364.15 88.0715 364.613 88.2108C364.663 88.2258 364.712 88.2407 364.762 88.2556ZM364.055 90.6056C363.483 90.289 363.046 89.3999 362.999 88.1766L362.263 90.6259C362.263 90.6259 362.362 90.6557 362.412 90.6707C363.014 90.8879 363.573 90.9479 363.956 90.9366L364.06 90.589L364.055 90.6056ZM363.543 92.3101L353.558 125.507C353.408 125.408 353.252 125.325 353.108 125.264C352.461 125.015 352.518 123.986 352.492 123.112L362.054 91.3209C362.684 91.5647 363.023 91.9374 363.548 92.2936L363.543 92.3101ZM363.835 85.3964L363.965 84.9661C364.721 85.2116 364.577 85.5111 363.835 85.3964ZM364.204 84.1718L364.403 83.5098C364.403 83.5098 364.502 83.5397 364.568 83.5596C365.462 83.8283 365.435 84.5782 364.541 84.3094C364.409 84.2696 364.293 84.2347 364.204 84.1718ZM365.294 80.5475L364.886 81.9045C364.479 81.0965 364.519 80.062 365.095 80.4878C365.161 80.5077 365.227 80.5276 365.294 80.5475ZM364.204 84.1718L364.403 83.5098C363.527 83.3006 363.631 83.8552 364.204 84.1718ZM363.965 84.9661L363.865 84.9362C362.79 84.6127 363.213 83.2061 362.385 82.9572C361.71 82.682 361.746 82.9816 361.289 83.602C360.958 84.0437 360.528 83.373 359.994 82.8695L359.421 84.7726C359.776 84.7348 360.204 84.6291 360.534 84.4936C361.247 84.221 361.848 84.7445 363.152 85.2089C363.417 85.2885 363.632 85.3532 363.819 85.3914L363.948 84.9611L363.965 84.9661ZM362.999 88.1766L362.263 90.6259C360.972 90.2376 358.836 90.6781 357.868 89.9359L359.133 85.7324C359.492 86.0389 359.882 86.3007 360.345 86.4401C361.537 86.7984 362.965 86.6687 362.996 88.0674L363.004 88.1601L362.999 88.1766ZM362.049 91.3375C361.966 91.3126 361.867 91.2827 361.767 91.2529C360.41 90.8447 360.118 92.417 359.208 91.7824C358.538 91.3102 357.876 91.2915 357.571 90.9835L349.09 119.183C349.437 120.37 349.686 121.401 350.299 121.405C350.944 121.419 350.632 120.296 350.348 119.381C350.064 118.465 351.727 121.275 352.251 121.992C352.428 122.244 352.479 122.675 352.499 123.15L362.06 91.359L362.049 91.3375ZM360.666 80.6354L360.835 80.0727C361.005 79.9255 361.305 79.8893 361.737 80.0733C362.68 80.357 362.871 82.1829 361.646 81.8146C361.067 81.6404 360.707 81.0989 360.644 80.6469L360.666 80.6354ZM360.666 80.6354L360.835 80.0727C360.691 80.1918 360.643 80.4119 360.666 80.6354ZM359.994 82.8695L359.421 84.7726C359.029 84.817 358.754 84.7705 358.857 84.5488C359.001 84.2493 358.372 84.2405 358.026 84.0102L358.474 82.5208C358.69 82.4051 358.951 82.3755 359.276 82.437C359.529 82.4951 359.769 82.6574 359.994 82.8695ZM359.128 85.749L357.863 89.9524C357.863 89.9524 357.774 89.8895 357.751 89.8464C357.294 89.3843 356.831 89.0645 356.59 88.8475L356.709 88.4503L356.802 88.4421C357.211 88.4027 357.067 88.3413 356.784 88.2021L357.834 84.7103C358.301 84.9589 358.701 85.368 359.149 85.7374L359.128 85.749ZM357.56 90.9619L349.079 119.161L349.054 119.064C348.781 118.17 348.419 117.393 348.236 116.562L356.334 89.6369C356.961 89.7714 357.347 89.8693 357.365 90.4702C357.371 90.6887 357.431 90.8509 357.56 90.9619ZM358.768 81.5444L358.992 80.7997C359.475 81.0533 359.243 81.3445 358.768 81.5444ZM358.992 80.7997L358.768 81.5444C358.314 81.7328 357.639 81.8184 357.159 81.6741C356.083 81.3506 356.103 82.1865 355.275 81.9376C354.448 81.6888 354.238 80.525 355.533 80.842C356.827 81.1591 357.162 80.2853 358.633 80.6737C358.782 80.7185 358.898 80.7533 358.987 80.8163L358.992 80.7997ZM358.474 82.5208C358.07 82.7241 357.865 83.1676 357.823 83.6062C357.801 83.7982 357.892 83.9158 358.026 84.0102L358.474 82.5208ZM357.812 84.7218L356.762 88.2137C356.38 88.0446 355.715 87.7362 355.765 87.2099C355.853 86.3161 353.134 86.4185 352.709 85.3705C352.284 84.3224 353.417 82.7143 354.857 83.1473C356.074 83.4229 356.465 84.2806 357.475 84.5842C357.591 84.6191 357.707 84.6539 357.812 84.7218ZM356.693 88.4454L356.573 88.8425C356.332 88.6255 356.295 88.5063 356.693 88.4454ZM356.334 89.6369C356.081 89.5788 355.79 89.5273 355.459 89.4277C354.35 89.0942 355.142 88.3218 353.702 87.8888C352.262 87.4558 352.836 88.0074 351.821 86.7636C350.8 85.5363 350.872 86.8573 349.168 86.3446C347.463 85.8319 347.028 86.0799 346.799 86.8412C346.57 87.6024 344.774 84.9329 342.374 84.0308C339.958 83.1237 337.556 81.5711 336.034 81.1132C334.511 80.6553 333.267 82.0316 331.4 81.7588C329.538 81.4695 331.337 82.5699 331.566 83.6675C331.8 84.7485 331.66 84.616 329.9 84.2854C328.146 83.9382 330.361 85.8135 331.553 86.1718C332.744 86.5302 331.216 86.9909 330.218 87.2501C329.219 87.5093 328.339 89.1755 329.667 89.6829C330.999 90.1738 330.091 90.731 331.796 91.2437C333.5 91.7563 331.578 92.5677 330.232 93.0832C328.869 93.5937 328.619 94.7274 329.369 94.3936C330.119 94.0597 332.024 93.2434 332.86 93.2241C333.696 93.2048 334.617 92.0021 335.425 91.7759C336.233 91.5497 336.363 92.9782 336.981 92.4241C337.615 91.875 338.28 92.7246 339.091 92.7881C339.902 92.8516 341.424 93.6703 342.048 94.0564C342.677 94.426 343.234 95.3334 344.285 95.5593C345.336 95.7851 344.911 97.498 345.41 98.2978C345.91 99.0977 346.696 99.2439 346.276 100.038C345.857 100.832 346.856 102.432 347.976 103.328C349.096 104.224 349.151 105.901 348.279 105.08C347.407 104.258 347.275 104.399 347.339 105.447C347.407 106.478 347.394 107.123 346.801 107.234C346.213 107.328 345.472 109.794 345.792 111.189C346.112 112.585 348.137 114.493 348.139 115.685C348.132 116.008 348.185 116.312 348.243 116.6L356.341 89.675L356.334 89.6369Z" fill="#5A7F8F"/>
</g>
<g style="mix-blend-mode:multiply" opacity="0.31">
<path fill-rule="evenodd" clip-rule="evenodd" d="M404.152 41.8312L344.58 0.436921L291.761 170.839L351.953 217.13L404.152 41.8312Z" fill="#DCD9D3"/>
</g>
<g style="mix-blend-mode:multiply" opacity="0.31">
<path fill-rule="evenodd" clip-rule="evenodd" d="M479.664 45.7578L429.004 224.641L490.813 262.017L537.504 92.9111L479.664 45.7578Z" fill="#DCD9D3"/>
</g>
</svg>
